<svg version="1.1" viewBox="0.0 0.0 982.0577427821522 555.0" fill="none" stroke="none" stroke-linecap="square" stroke-miterlimit="10" xmlns:xlink="http://www.w3.org/1999/xlink" xmlns="http://www.w3.org/2000/svg"><clipPath id="p.0"><path d="m0 0l982.05774 0l0 555.0l-982.05774 0l0 -555.0z" clip-rule="nonzero"/></clipPath><g clip-path="url(#p.0)"><path fill="#000000" fill-opacity="0.0" d="m0 0l982.05774 0l0 555.0l-982.05774 0z" fill-rule="evenodd"/><path fill="#000000" fill-opacity="0.0" d="m776.93823 232.7244l0 90.33072" fill-rule="evenodd"/><path stroke="#000000" stroke-width="1.931758530183727" stroke-linejoin="round" stroke-linecap="butt" d="m776.93823 232.7244l0 90.33072" fill-rule="evenodd"/><path fill="#000000" fill-opacity="0.0" d="m776.9464 234.42802c-2.8408203 -3.4085999 -7.102844 -12.214035 -17.044739 -20.45163c-9.941895 -8.23761 -23.29071 -20.73555 -42.60675 -28.973999c-19.315979 -8.238464 -42.894836 -14.7751465 -73.289246 -20.45671c-30.39441 -5.6815796 -71.29767 -11.360611 -109.07709 -13.632736c-37.77945 -2.2721252 -74.13849 -4.2611847 -117.59949 0c-43.461 4.2611694 -106.23883 14.204773 -143.16653 25.567078c-36.92769 11.362305 -54.25464 25.563705 -78.39963 42.606735c-24.145004 17.04303 -55.391968 49.709564 -66.47037 59.65146" fill-rule="evenodd"/><path stroke="#000000" stroke-width="1.931758530183727" stroke-linejoin="round" stroke-linecap="butt" d="m776.9464 234.42802c-2.8408203 -3.4085999 -7.102844 -12.214035 -17.044739 -20.45163c-9.941895 -8.23761 -23.29071 -20.73555 -42.60675 -28.973999c-19.315979 -8.238464 -42.894836 -14.7751465 -73.289246 -20.45671c-30.39441 -5.6815796 -71.29767 -11.360611 -109.07709 -13.632736c-37.77945 -2.2721252 -74.13849 -4.2611847 -117.59949 0c-43.461 4.2611694 -106.23883 14.204773 -143.16653 25.567078c-36.92769 11.362305 -54.25464 25.563705 -78.39963 42.606735c-24.145004 17.04303 -55.391968 49.709564 -66.47037 59.65146" fill-rule="evenodd"/><path fill="#000000" fill-opacity="0.0" d="m776.9464 322.42093c-2.8408203 3.0263977 -7.102844 10.844421 -17.044739 18.158295c-9.941895 7.313904 -23.29071 18.41037 -42.60675 25.725006c-19.315979 7.314636 -42.894836 13.118317 -73.289246 18.162811c-30.39441 5.044464 -71.29767 10.08667 -109.07709 12.104034c-37.77945 2.017334 -74.13849 3.7833252 -117.59949 0c-43.461 -3.7833557 -106.23883 -12.611938 -143.16653 -22.700134c-36.92769 -10.088196 -54.25464 -22.697113 -78.39963 -37.82904c-24.145004 -15.131897 -55.391968 -44.135345 -66.47037 -52.962433" fill-rule="evenodd"/><path stroke="#000000" stroke-width="1.931758530183727" stroke-linejoin="round" stroke-linecap="butt" d="m776.9464 322.42093c-2.8408203 3.0263977 -7.102844 10.844421 -17.044739 18.158295c-9.941895 7.313904 -23.29071 18.41037 -42.60675 25.725006c-19.315979 7.314636 -42.894836 13.118317 -73.289246 18.162811c-30.39441 5.044464 -71.29767 10.08667 -109.07709 12.104034c-37.77945 2.017334 -74.13849 3.7833252 -117.59949 0c-43.461 -3.7833557 -106.23883 -12.611938 -143.16653 -22.700134c-36.92769 -10.088196 -54.25464 -22.697113 -78.39963 -37.82904c-24.145004 -15.131897 -55.391968 -44.135345 -66.47037 -52.962433" fill-rule="evenodd"/><path fill="#000000" fill-opacity="0.0" d="m311.06168 242.70866l0.5984192 67.59056" fill-rule="evenodd"/><path stroke="#000000" stroke-width="2.3123359580052494" stroke-linejoin="round" stroke-linecap="butt" d="m311.06168 242.70866l0.5984192 67.59056" fill-rule="evenodd"/><path fill="#000000" fill-opacity="0.0" d="m667.5315 245.35432l1.0708618 60.755905" fill-rule="evenodd"/><path stroke="#000000" stroke-width="1.931758530183727" stroke-linejoin="round" stroke-linecap="butt" d="m667.5315 245.35432l1.0708618 60.755905" fill-rule="evenodd"/><path fill="#000000" fill-opacity="0.0" d="m311.65665 242.95015c13.258392 -3.7395782 50.993896 -17.337753 79.550385 -22.437454c28.556458 -5.0996857 52.354034 -9.181061 91.78845 -8.160721c39.434387 1.02034 113.88208 8.50354 144.818 14.282791c30.935913 5.779251 33.997986 16.993927 40.797546 20.392715" fill-rule="evenodd"/><path stroke="#000000" stroke-width="2.3123359580052494" stroke-linejoin="round" stroke-linecap="butt" d="m311.65665 242.95015c13.258392 -3.7395782 50.993896 -17.337753 79.550385 -22.437454c28.556458 -5.0996857 52.354034 -9.181061 91.78845 -8.160721c39.434387 1.02034 113.88208 8.50354 144.818 14.282791c30.935913 5.779251 33.997986 16.993927 40.797546 20.392715" fill-rule="evenodd"/><path fill="#000000" fill-opacity="0.0" d="m311.65665 311.25436c13.258392 3.739563 50.993896 17.337738 79.550385 22.437439c28.556458 5.099701 52.354034 9.181061 91.78845 8.160736c39.434387 -1.0203552 113.88208 -8.50354 144.818 -14.282806c30.935913 -5.779236 33.997986 -16.993927 40.797546 -20.3927" fill-rule="evenodd"/><path stroke="#000000" stroke-width="2.3123359580052494" stroke-linejoin="round" stroke-linecap="butt" d="m311.65665 311.25436c13.258392 3.739563 50.993896 17.337738 79.550385 22.437439c28.556458 5.099701 52.354034 9.181061 91.78845 8.160736c39.434387 -1.0203552 113.88208 -8.50354 144.818 -14.282806c30.935913 -5.779236 33.997986 -16.993927 40.797546 -20.3927" fill-rule="evenodd"/><path fill="#000000" fill-opacity="0.0" d="m667.5315 247.1181l108.53546 -11.464554" fill-rule="evenodd"/><path stroke="#000000" stroke-width="2.0" stroke-linejoin="round" stroke-linecap="butt" d="m667.5315 247.1181l108.53546 -11.464554" fill-rule="evenodd"/><path fill="#000000" fill-opacity="0.0" d="m241.35564 362.70865l70.29921 -52.409424" fill-rule="evenodd"/><path stroke="#000000" stroke-width="2.0" stroke-linejoin="round" stroke-linecap="butt" d="m241.35564 362.70865l70.29921 -52.409424" fill-rule="evenodd"/><path fill="#000000" fill-opacity="0.0" d="m236.17717 192.40945l74.01573 51.18109" fill-rule="evenodd"/><path stroke="#000000" stroke-width="2.0" stroke-linejoin="round" stroke-linecap="butt" d="m236.17717 192.40945l74.01573 51.18109" fill-rule="evenodd"/><path fill="#000000" fill-opacity="0.0" d="m667.5315 307.17584l108.53546 15.842529" fill-rule="evenodd"/><path stroke="#000000" stroke-width="2.0" stroke-linejoin="round" stroke-linecap="butt" d="m667.5315 307.17584l108.53546 15.842529" fill-rule="evenodd"/><path fill="#000000" fill-opacity="0.0" d="m130.17717 278.00262l0 5.2913513" fill-rule="evenodd"/><path stroke="#000000" stroke-width="1.931758530183727" stroke-linejoin="round" stroke-linecap="butt" d="m130.17717 278.00262l0 5.2913513" fill-rule="evenodd"/><path fill="#000000" fill-opacity="0.0" d="m162.84695 189.239l30.897644 0l0 48.472443l-30.897644 0z" fill-rule="evenodd"/><path fill="#38761d" d="m173.15945 217.31024l2.03125 -0.1875q0.25 1.421875 0.96875 2.078125q0.734375 0.640625 1.875 0.640625q0.96875 0 1.703125 -0.4375q0.734375 -0.453125 1.203125 -1.203125q0.46875 -0.75 0.78125 -2.015625q0.328125 -1.265625 0.328125 -2.578125q0 -0.140625 -0.015625 -0.421875q-0.640625 1.015625 -1.734375 1.640625q-1.09375 0.625 -2.375 0.625q-2.125 0 -3.609375 -1.546875q-1.46875 -1.546875 -1.46875 -4.078125q0 -2.609375 1.53125 -4.203125q1.546875 -1.59375 3.875 -1.59375q1.671875 0 3.0625 0.90625q1.390625 0.890625 2.109375 2.5625q0.71875 1.671875 0.71875 4.84375q0 3.28125 -0.71875 5.234375q-0.71875 1.953125 -2.125 2.984375q-1.40625 1.015625 -3.3125 1.015625q-2.015625 0 -3.296875 -1.125q-1.265625 -1.125 -1.53125 -3.140625zm8.640625 -7.59375q0 -1.8125 -0.96875 -2.875q-0.96875 -1.0625 -2.328125 -1.0625q-1.40625 0 -2.453125 1.15625q-1.03125 1.140625 -1.03125 2.96875q0 1.640625 0.984375 2.671875q0.984375 1.015625 2.4375 1.015625q1.46875 0 2.40625 -1.015625q0.953125 -1.03125 0.953125 -2.859375z" fill-rule="nonzero"/><path fill="#000000" fill-opacity="0.0" d="m164.13829 321.3379l30.866135 1.6062927l-2.551178 48.409454l-30.866135 -1.6063232z" fill-rule="evenodd"/><path fill="#38761d" d="m172.95955 349.9062l2.0383759 -0.08169556q0.1748352 1.4329224 0.858078 2.1256104q0.69966125 0.67788696 1.8387451 0.7371826q0.96743774 0.050354004 1.7238464 -0.34838867q0.75723267 -0.41433716 1.2648163 -1.1389465q0.5075836 -0.72457886 0.88627625 -1.972229q0.3942871 -1.2467957 0.4633484 -2.557495q0.0074005127 -0.14041138 0.0066070557 -0.42208862q-0.6932068 0.9809265 -1.8183746 1.5482178q-1.1251678 0.56729126 -2.4046783 0.5007019q-2.1221313 -0.110443115 -3.5230865 -1.7323303q-1.3853607 -1.6210632 -1.2521515 -4.1488037q0.1373291 -2.6057434 1.7503815 -4.1177063q1.6286621 -1.5111694 3.9536285 -1.3901672q1.6696167 0.086883545 3.0106812 1.064148q1.3418732 0.9616699 1.9716644 2.668579q0.62979126 1.7069092 0.4628601 4.8743896q-0.17268372 3.276703 -0.99324036 5.189789q-0.8205719 1.9130554 -2.27919 2.8697815q-1.4578094 0.9411316 -3.3614807 0.84207153q-2.0128937 -0.10473633 -3.2332153 -1.2947693q-1.2046967 -1.189209 -1.3638916 -3.2158508zm9.02858 -7.134186q0.09539795 -1.8099976 -0.8161316 -2.9213562q-0.91152954 -1.1113892 -2.2690582 -1.1820374q-1.4043579 -0.07305908 -2.510666 1.0271606q-1.0898895 1.0854492 -1.1860962 2.9110413q-0.08633423 1.6383667 0.84243774 2.7193298q0.92959595 1.0653992 2.3807526 1.1408997q1.4667664 0.07635498 2.4564514 -0.88916016q1.0061035 -0.98028564 1.1023102 -2.8058777z" fill-rule="nonzero"/><path fill="#000000" fill-opacity="0.0" d="m271.3573 189.92491l41.480316 0.0315094l0 42.015747l-41.480316 -0.03149414z" fill-rule="evenodd"/><path fill="#38761d" d="m287.31042 216.85704l-1.640625 -0.0012512207l0 -10.453125q-0.59375 0.56204224 -1.5625 1.1394348q-0.953125 0.56178284 -1.71875 0.842453l0 -1.59375q1.375 -0.6395874 2.40625 -1.5606842q1.03125 -0.92108154 1.453125 -1.7801361l1.0625 8.087158E-4l0 13.40625zm4.313202 -11.60611l0 -1.578125l8.640625 0.0065612793l0 1.28125q-1.28125 1.3583984 -2.53125 3.6074524q-1.25 2.249054 -1.9375 4.623535q-0.484375 1.6715088 -0.625 3.671402l-1.6875 -0.0012817383q0.03125 -1.5780945 0.625 -3.812027q0.59375 -2.2339172 1.6875 -4.2955933q1.109375 -2.0772858 2.359375 -3.4982147l-6.53125 -0.0049591064z" fill-rule="nonzero"/><path fill="#000000" fill-opacity="0.0" d="m313.7116 257.6454l41.480316 0.03149414l0 42.015747l-41.480316 -0.03149414z" fill-rule="evenodd"/><path fill="#38761d" d="m329.66473 284.5775l-1.640625 -0.0012512207l0 -10.453125q-0.59375 0.56204224 -1.5625 1.1394348q-0.953125 0.5617676 -1.71875 0.84243774l0 -1.59375q1.375 -0.6395569 2.40625 -1.560669q1.03125 -0.92108154 1.453125 -1.7801514l1.0625 8.239746E-4l0 13.40625zm4.3132324 -11.60611l0 -1.578125l8.640625 0.0065612793l0 1.28125q-1.28125 1.3583984 -2.53125 3.6074524q-1.25 2.249054 -1.9375 4.623535q-0.484375 1.6715088 -0.625 3.6713867l-1.6875 -0.0012817383q0.03125 -1.5780945 0.625 -3.8120117q0.59375 -2.2339172 1.6875 -4.2955933q1.109375 -2.077301 2.359375 -3.4981995l-6.53125 -0.0049743652z" fill-rule="nonzero"/><path fill="#000000" fill-opacity="0.0" d="m272.2313 327.0391l41.480316 0.03149414l0 42.015747l-41.480316 -0.03149414z" fill-rule="evenodd"/><path fill="#38761d" d="m288.18442 353.97122l-1.640625 -0.0012512207l0 -10.453125q-0.59375 0.56204224 -1.5625 1.1394348q-0.953125 0.5617676 -1.71875 0.84243774l0 -1.59375q1.375 -0.6395874 2.40625 -1.560669q1.03125 -0.92108154 1.453125 -1.7801514l1.0625 8.239746E-4l0 13.40625zm4.3132324 -11.60611l0 -1.578125l8.640625 0.0065612793l0 1.28125q-1.28125 1.3583984 -2.53125 3.6074524q-1.25 2.249054 -1.9375 4.623535q-0.484375 1.6715088 -0.625 3.6713867l-1.6875 -0.0012817383q0.03125 -1.5780945 0.625 -3.8120117q0.59375 -2.2339478 1.6875 -4.2955933q1.109375 -2.077301 2.359375 -3.49823l-6.53125 -0.0049438477z" fill-rule="nonzero"/><path fill="#000000" fill-opacity="0.0" d="m463.22162 109.64567l53.826782 0.03149414l0 42.015755l-53.826782 -0.03149414z" fill-rule="evenodd"/><path fill="#38761d" d="m479.17474 136.57501l-1.640625 -9.613037E-4l0 -10.453133q-0.59375 0.5621567 -1.5625 1.1397095q-0.953125 0.56194305 -1.71875 0.84275055l0 -1.59375q1.375 -0.6398239 2.40625 -1.5610962q1.03125 -0.9212723 1.453125 -1.7803955l1.0625 6.1798096E-4l0 13.406258zm6.719452 -7.2304535q-1.015625 -0.3755951 -1.515625 -1.063385q-0.484375 -0.7034073 -0.484375 -1.6721573q0 -1.453125 1.046875 -2.4368896q1.046875 -0.999382 2.78125 -0.9983673q1.75 0.0010223389 2.8125 1.0172653q1.078125 1.0162582 1.078125 2.4693832q0 0.9375 -0.5 1.6247025q-0.484375 0.68722534 -1.46875 1.0616455q1.21875 0.39134216 1.859375 1.2823334q0.65625 0.8910217 0.65625 2.1410217q0 1.703125 -1.21875 2.8742828q-1.21875 1.1711578 -3.1875 1.1700134q-1.984375 -0.001159668 -3.203125 -1.1737518q-1.203125 -1.1725769 -1.203125 -2.922577q0 -1.3125 0.65625 -2.1871185q0.671875 -0.8746033 1.890625 -1.1864014zm-0.328125 -2.7814407q0 0.9375 0.609375 1.5472336q0.609375 0.59410095 1.59375 0.5946808q0.9375 5.493164E-4 1.546875 -0.59284973q0.609375 -0.5933838 0.609375 -1.4527588q0 -0.90625 -0.625 -1.5159912q-0.625 -0.6253662 -1.5625 -0.6259155q-0.9375 -5.493164E-4 -1.5625 0.6084595q-0.609375 0.5933914 -0.609375 1.4371414zm-0.53125 6.155937q0 0.703125 0.328125 1.3595734q0.34375 0.65644836 1.0 1.0162048q0.65625 0.35975647 1.40625 0.36019897q1.171875 6.866455E-4 1.9375 -0.7488556q0.765625 -0.7495575 0.765625 -1.9214325q0 -1.1875 -0.796875 -1.953598q-0.78125 -0.78170776 -1.953125 -0.7823944q-1.15625 -6.713867E-4 -1.921875 0.7645111q-0.765625 0.76516724 -0.765625 1.9057922zm8.719482 0.3644867l1.71875 -0.13961792q0.1875 1.2501068 0.875 1.8911285q0.703125 0.625412 1.6875 0.6259918q1.1875 6.866455E-4 2.0 -0.8894501q0.828125 -0.890152 0.828125 -2.358902q0 -1.40625 -0.796875 -2.2192078q-0.78125 -0.81295776 -2.0625 -0.81370544q-0.78125 -4.5776367E-4 -1.421875 0.35853577q-0.640625 0.3590088 -1.0 0.93692017l-1.546875 -0.20404053l1.296875 -6.858612l6.640625 0.0038909912l0 1.5625l-5.328125 -0.0031204224l-0.71875 3.5933304q1.203125 -0.8430481 2.515625 -0.8422775q1.75 0.0010223389 2.953125 1.2204819q1.203125 1.2038269 1.203125 3.110077q0 1.8125 -1.046875 3.1400146q-1.296875 1.6242371 -3.515625 1.6229401q-1.8125 -0.0010681152 -2.96875 -1.0173645q-1.15625 -1.0319214 -1.3125 -2.719513z" fill-rule="nonzero"/><path fill="#000000" fill-opacity="0.0" d="m463.2203 403.3071l53.82675 0.03149414l0 42.015747l-53.82675 -0.03149414z" fill-rule="evenodd"/><path fill="#38761d" d="m479.17343 430.23642l-1.640625 -9.460449E-4l0 -10.453125q-0.59375 0.5621338 -1.5625 1.1397095q-0.953125 0.56192017 -1.71875 0.8427429l0 -1.59375q1.375 -0.63983154 2.40625 -1.5610962q1.03125 -0.92126465 1.453125 -1.7803955l1.0625 6.1035156E-4l0 13.40625zm6.719452 -7.230438q-1.015625 -0.37561035 -1.515625 -1.063385q-0.484375 -0.70339966 -0.484375 -1.6721497q0 -1.453125 1.046875 -2.4368896q1.046875 -0.99938965 2.78125 -0.99838257q1.75 0.0010375977 2.8125 1.017273q1.078125 1.0162659 1.078125 2.4693909q0 0.9375 -0.5 1.6246948q-0.484375 0.68722534 -1.46875 1.0616455q1.21875 0.3913269 1.859375 1.2823486q0.65625 0.8909912 0.65625 2.1409912q0 1.703125 -1.21875 2.874298q-1.21875 1.1711426 -3.1875 1.1700134q-1.984375 -0.001159668 -3.203125 -1.1737671q-1.203125 -1.1725769 -1.203125 -2.922577q0 -1.3125 0.65625 -2.1871033q0.671875 -0.8746033 1.890625 -1.1864014zm-0.328125 -2.781433q0 0.9375 0.609375 1.5472107q0.609375 0.5941162 1.59375 0.59469604q0.9375 5.493164E-4 1.546875 -0.5928345q0.609375 -0.5934143 0.609375 -1.4527893q0 -0.90625 -0.625 -1.5159912q-0.625 -0.6253662 -1.5625 -0.6259155q-0.9375 -5.493164E-4 -1.5625 0.6084595q-0.609375 0.5934143 -0.609375 1.4371643zm-0.53125 6.1559143q0 0.703125 0.328125 1.3595886q0.34375 0.6564331 1.0 1.0162048q0.65625 0.35977173 1.40625 0.36019897q1.171875 6.713867E-4 1.9375 -0.74887085q0.765625 -0.74954224 0.765625 -1.9214172q0 -1.1875 -0.796875 -1.9536133q-0.78125 -0.78170776 -1.953125 -0.78237915q-1.15625 -6.713867E-4 -1.921875 0.76449585q-0.765625 0.76516724 -0.765625 1.9057922zm8.719482 0.36450195l1.71875 -0.13961792q0.1875 1.2500916 0.875 1.8911133q0.703125 0.62542725 1.6875 0.6260071q1.1875 7.019043E-4 2.0 -0.88946533q0.828125 -0.8901367 0.828125 -2.3588867q0 -1.40625 -0.796875 -2.2192078q-0.78125 -0.81295776 -2.0625 -0.8137207q-0.78125 -4.5776367E-4 -1.421875 0.35855103q-0.640625 0.3590088 -1.0 0.93692017l-1.546875 -0.20404053l1.296875 -6.858612l6.640625 0.0038757324l0 1.5625l-5.328125 -0.003112793l-0.71875 3.5933228q1.203125 -0.8430481 2.515625 -0.84225464q1.75 0.0010070801 2.953125 1.220459q1.203125 1.2038269 1.203125 3.110077q0 1.8125 -1.046875 3.1400146q-1.296875 1.6242371 -3.515625 1.6229553q-1.8125 -0.0010681152 -2.96875 -1.0173645q-1.15625 -1.0319214 -1.3125 -2.719513z" fill-rule="nonzero"/><path fill="#000000" fill-opacity="0.0" d="m463.7085 331.02362l53.826782 0.03149414l0 42.015747l-53.826782 -0.03149414z" fill-rule="evenodd"/><path fill="#38761d" d="m479.66162 357.95297l-1.640625 -9.765625E-4l0 -10.453125q-0.59375 0.5621643 -1.5625 1.1397095q-0.953125 0.5619507 -1.71875 0.8427429l0 -1.59375q1.375 -0.639801 2.40625 -1.5610962q1.03125 -0.92126465 1.453125 -1.7803955l1.0625 6.4086914E-4l0 13.40625zm6.719452 -7.2304688q-1.015625 -0.37557983 -1.515625 -1.063385q-0.484375 -0.70339966 -0.484375 -1.6721497q0 -1.453125 1.046875 -2.4368896q1.046875 -0.99938965 2.78125 -0.99838257q1.75 0.0010375977 2.8125 1.017273q1.078125 1.0162659 1.078125 2.4693909q0 0.9375 -0.5 1.6246948q-0.484375 0.68722534 -1.46875 1.0616455q1.21875 0.39135742 1.859375 1.2823486q0.65625 0.8910217 0.65625 2.1410217q0 1.703125 -1.21875 2.8742676q-1.21875 1.1711731 -3.1875 1.1700134q-1.984375 -0.001159668 -3.203125 -1.1737366q-1.203125 -1.1725769 -1.203125 -2.922577q0 -1.3125 0.65625 -2.1871338q0.671875 -0.8746033 1.890625 -1.1864014zm-0.328125 -2.781433q0 0.9375 0.609375 1.5472412q0.609375 0.5940857 1.59375 0.5946655q0.9375 5.493164E-4 1.546875 -0.5928345q0.609375 -0.5933838 0.609375 -1.4527588q0 -0.90625 -0.625 -1.5159912q-0.625 -0.6253662 -1.5625 -0.6259155q-0.9375 -5.493164E-4 -1.5625 0.6084595q-0.609375 0.5933838 -0.609375 1.4371338zm-0.53125 6.155945q0 0.703125 0.328125 1.3595581q0.34375 0.6564636 1.0 1.0162048q0.65625 0.35977173 1.40625 0.36019897q1.171875 7.019043E-4 1.9375 -0.74884033q0.765625 -0.74957275 0.765625 -1.9214478q0 -1.1875 -0.796875 -1.9535828q-0.78125 -0.78170776 -1.953125 -0.78240967q-1.15625 -6.713867E-4 -1.921875 0.76452637q-0.765625 0.76516724 -0.765625 1.9057922zm8.719482 0.36447144l1.71875 -0.13961792q0.1875 1.2501221 0.875 1.8911438q0.703125 0.6253967 1.6875 0.62597656q1.1875 7.019043E-4 2.0 -0.8894348q0.828125 -0.89016724 0.828125 -2.3589172q0 -1.40625 -0.796875 -2.2192078q-0.78125 -0.81295776 -2.0625 -0.8136902q-0.78125 -4.5776367E-4 -1.421875 0.3585205q-0.640625 0.3590088 -1.0 0.93692017l-1.546875 -0.20404053l1.296875 -6.858612l6.640625 0.00390625l0 1.5625l-5.328125 -0.0031433105l-0.71875 3.5933533q1.203125 -0.8430481 2.515625 -0.84228516q1.75 0.0010375977 2.953125 1.2204895q1.203125 1.2038269 1.203125 3.110077q0 1.8125 -1.046875 3.1400146q-1.296875 1.6242371 -3.515625 1.6229248q-1.8125 -0.0010681152 -2.96875 -1.0173645q-1.15625 -1.0319214 -1.3125 -2.719513z" fill-rule="nonzero"/><path fill="#000000" fill-opacity="0.0" d="m461.94998 176.85564l53.82675 0.0315094l0 42.015747l-53.82675 -0.0315094z" fill-rule="evenodd"/><path fill="#38761d" d="m477.90308 203.78497l-1.640625 -9.460449E-4l0 -10.45314q-0.59375 0.5621643 -1.5625 1.1397247q-0.953125 0.5619354 -1.71875 0.8427429l0 -1.59375q1.375 -0.63983154 2.40625 -1.5610962q1.03125 -0.9212799 1.453125 -1.7803955l1.0625 6.1035156E-4l0 13.40625zm6.7194824 -7.230438q-1.015625 -0.3755951 -1.515625 -1.063385q-0.484375 -0.7034149 -0.484375 -1.6721649q0 -1.453125 1.046875 -2.4368896q1.046875 -0.9993744 2.78125 -0.9983673q1.75 0.0010223389 2.8125 1.017273q1.078125 1.0162506 1.078125 2.4693756q0 0.9375 -0.5 1.6247101q-0.484375 0.68722534 -1.46875 1.0616455q1.21875 0.39134216 1.859375 1.2823334q0.65625 0.89100647 0.65625 2.1410065q0 1.703125 -1.21875 2.874298q-1.21875 1.1711578 -3.1875 1.1699982q-1.984375 -0.001159668 -3.203125 -1.1737366q-1.203125 -1.1725922 -1.203125 -2.9225922q0 -1.3125 0.65625 -2.1871033q0.671875 -0.87461853 1.890625 -1.1864014zm-0.328125 -2.7814484q0 0.9375 0.609375 1.5472412q0.609375 0.59410095 1.59375 0.5946808q0.9375 5.493164E-4 1.546875 -0.59284973q0.609375 -0.5933838 0.609375 -1.4527588q0 -0.90625 -0.625 -1.5159912q-0.625 -0.6253662 -1.5625 -0.6259155q-0.9375 -5.493164E-4 -1.5625 0.6084595q-0.609375 0.5933838 -0.609375 1.4371338zm-0.53125 6.155945q0 0.703125 0.328125 1.3595734q0.34375 0.65644836 1.0 1.0162048q0.65625 0.35975647 1.40625 0.36019897q1.171875 6.866455E-4 1.9375 -0.74887085q0.765625 -0.74954224 0.765625 -1.9214172q0 -1.1875 -0.796875 -1.953598q-0.78125 -0.78170776 -1.953125 -0.7823944q-1.15625 -6.713867E-4 -1.921875 0.7645111q-0.765625 0.76516724 -0.765625 1.9057922zm8.719452 0.3644867l1.71875 -0.13963318q0.1875 1.2501221 0.875 1.8911438q0.703125 0.625412 1.6875 0.6259918q1.1875 6.866455E-4 2.0 -0.88946533q0.828125 -0.8901367 0.828125 -2.3588867q0 -1.40625 -0.796875 -2.2192078q-0.78125 -0.81295776 -2.0625 -0.8137207q-0.78125 -4.4250488E-4 -1.421875 0.35855103q-0.640625 0.35899353 -1.0 0.93692017l-1.546875 -0.20404053l1.296875 -6.858612l6.640625 0.0038909912l0 1.5625l-5.328125 -0.0031280518l-0.71875 3.593338q1.203125 -0.8430481 2.515625 -0.84228516q1.75 0.0010223389 2.953125 1.2204742q1.203125 1.2038422 1.203125 3.1100922q0 1.8125 -1.046875 3.1400146q-1.296875 1.6242371 -3.515625 1.6229401q-1.8125 -0.0010681152 -2.96875 -1.0173645q-1.15625 -1.0319214 -1.3125 -2.719513z" fill-rule="nonzero"/><path fill="#000000" fill-opacity="0.0" d="m627.1211 256.12308l41.480286 0.03149414l0 42.015747l-41.480286 -0.03149414z" fill-rule="evenodd"/><path fill="#38761d" d="m643.0742 283.0552l-1.640625 -0.0012512207l0 -10.453125q-0.59375 0.56204224 -1.5625 1.1394348q-0.953125 0.5617676 -1.71875 0.84243774l0 -1.59375q1.375 -0.6395874 2.40625 -1.560669q1.03125 -0.92108154 1.453125 -1.7801514l1.0625 8.239746E-4l0 13.40625zm4.3131714 -11.60611l0 -1.578125l8.640625 0.0065612793l0 1.28125q-1.28125 1.3583984 -2.53125 3.6074524q-1.25 2.249054 -1.9375 4.623535q-0.484375 1.6715088 -0.625 3.6713867l-1.6875 -0.0012817383q0.03125 -1.5780945 0.625 -3.8120117q0.59375 -2.2339172 1.6875 -4.2955933q1.109375 -2.077301 2.359375 -3.4981995l-6.53125 -0.0049743652z" fill-rule="nonzero"/><path fill="#000000" fill-opacity="0.0" d="m702.03314 208.41048l41.480347 0.0315094l0 42.015747l-41.480347 -0.0315094z" fill-rule="evenodd"/><path fill="#38761d" d="m717.98627 235.3426l-1.640625 -0.0012512207l0 -10.453125q-0.59375 0.56204224 -1.5625 1.1394348q-0.953125 0.56178284 -1.71875 0.842453l0 -1.59375q1.375 -0.6395874 2.40625 -1.5606842q1.03125 -0.92108154 1.453125 -1.7801361l1.0625 8.087158E-4l0 13.40625zm4.3132324 -11.60611l0 -1.578125l8.640625 0.0065612793l0 1.28125q-1.28125 1.3583984 -2.53125 3.6074524q-1.25 2.249054 -1.9375 4.623535q-0.484375 1.6715088 -0.625 3.671402l-1.6875 -0.0012817383q0.03125 -1.5781097 0.625 -3.812027q0.59375 -2.2339325 1.6875 -4.2955933q1.109375 -2.0772858 2.359375 -3.4982147l-6.53125 -0.0049591064z" fill-rule="nonzero"/><path fill="#000000" fill-opacity="0.0" d="m702.03314 310.30023l41.480347 0.03152466l0 42.015747l-41.480347 -0.03149414z" fill-rule="evenodd"/><path fill="#38761d" d="m717.98627 337.23236l-1.640625 -0.0012512207l0 -10.453125q-0.59375 0.56204224 -1.5625 1.1394348q-0.953125 0.5617981 -1.71875 0.84246826l0 -1.59375q1.375 -0.6395874 2.40625 -1.5606995q1.03125 -0.92108154 1.453125 -1.7801208l1.0625 7.9345703E-4l0 13.40625zm4.3132324 -11.60611l0 -1.578125l8.640625 0.0065612793l0 1.28125q-1.28125 1.3583984 -2.53125 3.6074524q-1.25 2.249054 -1.9375 4.623535q-0.484375 1.6715088 -0.625 3.6714172l-1.6875 -0.0012817383q0.03125 -1.5780945 0.625 -3.8120422q0.59375 -2.2339172 1.6875 -4.2955933q1.109375 -2.0772705 2.359375 -3.4981995l-6.53125 -0.0049743652z" fill-rule="nonzero"/><path fill="#000000" fill-opacity="0.0" d="m783.9793 260.95117l41.480347 0.03149414l0 42.015747l-41.480347 -0.03149414z" fill-rule="evenodd"/><path fill="#38761d" d="m799.93243 287.88327l-1.640625 -0.0012207031l0 -10.453125q-0.59375 0.56204224 -1.5625 1.1394348q-0.953125 0.5617676 -1.71875 0.84243774l0 -1.59375q1.375 -0.6395874 2.40625 -1.560669q1.03125 -0.92111206 1.453125 -1.7801514l1.0625 7.9345703E-4l0 13.40625zm4.3132324 -11.606079l0 -1.578125l8.640625 0.0065612793l0 1.28125q-1.28125 1.3583984 -2.53125 3.6074524q-1.25 2.249054 -1.9375 4.623535q-0.484375 1.6715088 -0.625 3.6713867l-1.6875 -0.0012817383q0.03125 -1.5780945 0.625 -3.8120117q0.59375 -2.2339478 1.6875 -4.2955933q1.109375 -2.077301 2.359375 -3.49823l-6.53125 -0.0049438477z" fill-rule="nonzero"/><path fill="#000000" fill-opacity="0.0" d="m783.9803 198.70866l-22.897583 12.094482" fill-rule="evenodd"/><path stroke="#000000" stroke-width="1.0" stroke-linejoin="round" stroke-linecap="butt" d="m783.9803 198.70866l-17.592224 9.292191" fill-rule="evenodd"/><path fill="#000000" stroke="#000000" stroke-width="1.0" stroke-linecap="butt" d="m765.61664 206.54034l-3.241272 3.5800323l4.7841187 -0.65901184z" fill-rule="evenodd"/><path fill="#000000" fill-opacity="0.0" d="m783.9803 166.3937l113.85828 0l0 64.62991l-113.85828 0z" fill-rule="evenodd"/><path fill="#cc0000" d="m803.94904 188.6262l1.765625 0.453125q-0.5625 2.171875 -2.0 3.328125q-1.4375 1.140625 -3.53125 1.140625q-2.15625 0 -3.515625 -0.875q-1.34375 -0.890625 -2.0625 -2.546875q-0.703125 -1.671875 -0.703125 -3.59375q0 -2.078125 0.796875 -3.625q0.796875 -1.5625 2.265625 -2.359375q1.484375 -0.8125 3.25 -0.8125q2.0 0 3.359375 1.015625q1.375 1.015625 1.90625 2.875l-1.734375 0.40625q-0.46875 -1.453125 -1.359375 -2.109375q-0.875 -0.671875 -2.203125 -0.671875q-1.546875 0 -2.578125 0.734375q-1.03125 0.734375 -1.453125 1.984375q-0.421875 1.234375 -0.421875 2.5625q0 1.703125 0.5 2.96875q0.5 1.265625 1.546875 1.90625q1.046875 0.625 2.265625 0.625q1.484375 0 2.515625 -0.859375q1.03125 -0.859375 1.390625 -2.546875zm3.1292114 -0.15625q0 -2.6875 1.484375 -3.96875q1.25 -1.078125 3.046875 -1.078125q2.0 0 3.265625 1.3125q1.265625 1.296875 1.265625 3.609375q0 1.859375 -0.5625 2.9375q-0.5625 1.0625 -1.640625 1.65625q-1.0625 0.59375 -2.328125 0.59375q-2.03125 0 -3.28125 -1.296875q-1.25 -1.3125 -1.25 -3.765625zm1.6875 0q0 1.859375 0.796875 2.796875q0.8125 0.921875 2.046875 0.921875q1.21875 0 2.03125 -0.921875q0.8125 -0.9375 0.8125 -2.84375q0 -1.796875 -0.8125 -2.71875q-0.8125 -0.921875 -2.03125 -0.921875q-1.234375 0 -2.046875 0.921875q-0.796875 0.90625 -0.796875 2.765625zm9.297607 8.546875l0 -13.375l1.484375 0l0 1.25q0.53125 -0.734375 1.1875 -1.09375q0.671875 -0.375 1.625 -0.375q1.234375 0 2.171875 0.640625q0.953125 0.625 1.4375 1.796875q0.484375 1.15625 0.484375 2.546875q0 1.484375 -0.53125 2.671875q-0.53125 1.1875 -1.546875 1.828125q-1.015625 0.625 -2.140625 0.625q-0.8125 0 -1.46875 -0.34375q-0.65625 -0.34375 -1.0625 -0.875l0 4.703125l-1.640625 0zm1.484375 -8.484375q0 1.859375 0.75 2.765625q0.765625 0.890625 1.828125 0.890625q1.09375 0 1.875 -0.921875q0.78125 -0.9375 0.78125 -2.875q0 -1.84375 -0.765625 -2.765625q-0.75 -0.921875 -1.8125 -0.921875q-1.046875 0 -1.859375 0.984375q-0.796875 0.96875 -0.796875 2.84375zm8.813232 8.5l-0.1875 -1.53125q0.546875 0.140625 0.9375 0.140625q0.546875 0 0.875 -0.1875q0.328125 -0.171875 0.546875 -0.5q0.15625 -0.25 0.5 -1.21875q0.046875 -0.140625 0.140625 -0.40625l-3.671875 -9.6875l1.765625 0l2.015625 5.59375q0.390625 1.078125 0.703125 2.25q0.28125 -1.125 0.671875 -2.203125l2.078125 -5.640625l1.640625 0l-3.6875 9.828125q-0.59375 1.609375 -0.921875 2.203125q-0.4375 0.8125 -1.0 1.1875q-0.5625 0.375 -1.34375 0.375q-0.484375 0 -1.0625 -0.203125zm14.980164 -3.71875l0 -8.40625l-1.453125 0l0 -1.265625l1.453125 0l0 -1.03125q0 -0.96875 0.171875 -1.453125q0.234375 -0.640625 0.828125 -1.03125q0.59375 -0.390625 1.671875 -0.390625q0.6875 0 1.53125 0.15625l-0.25 1.4375q-0.5 -0.09375 -0.953125 -0.09375q-0.75 0 -1.0625 0.328125q-0.3125 0.3125 -0.3125 1.1875l0 0.890625l1.890625 0l0 1.265625l-1.890625 0l0 8.40625l-1.625 0zm4.7770386 0l0 -9.671875l1.46875 0l0 1.46875q0.5625 -1.03125 1.03125 -1.359375q0.484375 -0.328125 1.0625 -0.328125q0.828125 0 1.6875 0.53125l-0.5625 1.515625q-0.609375 -0.359375 -1.203125 -0.359375q-0.546875 0 -0.96875 0.328125q-0.421875 0.328125 -0.609375 0.890625q-0.28125 0.875 -0.28125 1.921875l0 5.0625l-1.625 0zm5.6189575 -4.84375q0 -2.6875 1.484375 -3.96875q1.25 -1.078125 3.046875 -1.078125q2.0 0 3.265625 1.3125q1.265625 1.296875 1.265625 3.609375q0 1.859375 -0.5625 2.9375q-0.5625 1.0625 -1.640625 1.65625q-1.0625 0.59375 -2.328125 0.59375q-2.03125 0 -3.28125 -1.296875q-1.25 -1.3125 -1.25 -3.765625zm1.6875 0q0 1.859375 0.796875 2.796875q0.8125 0.921875 2.046875 0.921875q1.21875 0 2.03125 -0.921875q0.8125 -0.9375 0.8125 -2.84375q0 -1.796875 -0.8125 -2.71875q-0.8125 -0.921875 -2.03125 -0.921875q-1.234375 0 -2.046875 0.921875q-0.796875 0.90625 -0.796875 2.765625zm9.297546 4.84375l0 -9.671875l1.46875 0l0 1.359375q0.453125 -0.71875 1.203125 -1.140625q0.765625 -0.4375 1.71875 -0.4375q1.078125 0 1.765625 0.453125q0.6875 0.4375 0.96875 1.234375q1.15625 -1.6875 2.984375 -1.6875q1.453125 0 2.21875 0.796875q0.78125 0.796875 0.78125 2.453125l0 6.640625l-1.640625 0l0 -6.09375q0 -0.984375 -0.15625 -1.40625q-0.15625 -0.4375 -0.578125 -0.703125q-0.421875 -0.265625 -0.984375 -0.265625q-1.015625 0 -1.6875 0.6875q-0.671875 0.671875 -0.671875 2.15625l0 5.625l-1.640625 0l0 -6.28125q0 -1.09375 -0.40625 -1.640625q-0.40625 -0.546875 -1.3125 -0.546875q-0.6875 0 -1.28125 0.359375q-0.59375 0.359375 -0.859375 1.0625q-0.25 0.703125 -0.25 2.03125l0 5.015625l-1.640625 0z" fill-rule="nonzero"/><path fill="#cc0000" d="m797.82404 215.7137l0 -11.78125l-4.40625 0l0 -1.578125l10.578125 0l0 1.578125l-4.40625 0l0 11.78125l-1.765625 0zm8.020996 0l0 -13.359375l9.65625 0l0 1.578125l-7.875 0l0 4.09375l7.375 0l0 1.5625l-7.375 0l0 4.546875l8.1875 0l0 1.578125l-9.96875 0z" fill-rule="nonzero"/><path fill="#000000" fill-opacity="0.0" d="m799.8412 366.6929l-24.661377 -26.929108" fill-rule="evenodd"/><path stroke="#000000" stroke-width="1.0" stroke-linejoin="round" stroke-linecap="butt" d="m799.8412 366.6929l-20.60913 -22.504242" fill-rule="evenodd"/><path fill="#000000" stroke="#000000" stroke-width="1.0" stroke-linecap="butt" d="m780.45013 343.0731l-4.28302 -2.2312012l1.8468018 4.4622803z" fill-rule="evenodd"/><path fill="#000000" fill-opacity="0.0" d="m799.8412 323.0551l108.53546 0l0 87.275604l-108.53546 0z" fill-rule="evenodd"/><path fill="#cc0000" d="m819.80994 345.28763l1.765625 0.453125q-0.5625 2.171875 -2.0 3.328125q-1.4375 1.140625 -3.53125 1.140625q-2.15625 0 -3.515625 -0.875q-1.34375 -0.890625 -2.0625 -2.546875q-0.703125 -1.671875 -0.703125 -3.59375q0 -2.078125 0.796875 -3.625q0.796875 -1.5625 2.265625 -2.359375q1.484375 -0.8125 3.25 -0.8125q2.0 0 3.359375 1.015625q1.375 1.015625 1.90625 2.875l-1.734375 0.40625q-0.46875 -1.453125 -1.359375 -2.109375q-0.875 -0.671875 -2.203125 -0.671875q-1.546875 0 -2.578125 0.734375q-1.03125 0.734375 -1.453125 1.984375q-0.421875 1.234375 -0.421875 2.5625q0 1.703125 0.5 2.96875q0.5 1.265625 1.546875 1.90625q1.046875 0.625 2.265625 0.625q1.484375 0 2.515625 -0.859375q1.03125 -0.859375 1.390625 -2.546875zm3.1292114 -0.15625q0 -2.6875 1.484375 -3.96875q1.25 -1.078125 3.046875 -1.078125q2.0 0 3.265625 1.3125q1.265625 1.296875 1.265625 3.609375q0 1.859375 -0.5625 2.9375q-0.5625 1.0625 -1.640625 1.65625q-1.0625 0.59375 -2.328125 0.59375q-2.03125 0 -3.28125 -1.296875q-1.25 -1.3125 -1.25 -3.765625zm1.6875 0q0 1.859375 0.796875 2.796875q0.8125 0.921875 2.046875 0.921875q1.21875 0 2.03125 -0.921875q0.8125 -0.9375 0.8125 -2.84375q0 -1.796875 -0.8125 -2.71875q-0.8125 -0.921875 -2.03125 -0.921875q-1.234375 0 -2.046875 0.921875q-0.796875 0.90625 -0.796875 2.765625zm9.297607 8.546875l0 -13.375l1.484375 0l0 1.25q0.53125 -0.734375 1.1875 -1.09375q0.671875 -0.375 1.625 -0.375q1.234375 0 2.171875 0.640625q0.953125 0.625 1.4375 1.796875q0.484375 1.15625 0.484375 2.546875q0 1.484375 -0.53125 2.671875q-0.53125 1.1875 -1.546875 1.828125q-1.015625 0.625 -2.140625 0.625q-0.8125 0 -1.46875 -0.34375q-0.65625 -0.34375 -1.0625 -0.875l0 4.703125l-1.640625 0zm1.484375 -8.484375q0 1.859375 0.75 2.765625q0.765625 0.890625 1.828125 0.890625q1.09375 0 1.875 -0.921875q0.78125 -0.9375 0.78125 -2.875q0 -1.84375 -0.765625 -2.765625q-0.75 -0.921875 -1.8125 -0.921875q-1.046875 0 -1.859375 0.984375q-0.796875 0.96875 -0.796875 2.84375zm8.813232 8.5l-0.1875 -1.53125q0.546875 0.140625 0.9375 0.140625q0.546875 0 0.875 -0.1875q0.328125 -0.171875 0.546875 -0.5q0.15625 -0.25 0.5 -1.21875q0.046875 -0.140625 0.140625 -0.40625l-3.671875 -9.6875l1.765625 0l2.015625 5.59375q0.390625 1.078125 0.703125 2.25q0.28125 -1.125 0.671875 -2.203125l2.078125 -5.640625l1.640625 0l-3.6875 9.828125q-0.59375 1.609375 -0.921875 2.203125q-0.4375 0.8125 -1.0 1.1875q-0.5625 0.375 -1.34375 0.375q-0.484375 0 -1.0625 -0.203125zm14.980164 -3.71875l0 -8.40625l-1.453125 0l0 -1.265625l1.453125 0l0 -1.03125q0 -0.96875 0.171875 -1.453125q0.234375 -0.640625 0.828125 -1.03125q0.59375 -0.390625 1.671875 -0.390625q0.6875 0 1.53125 0.15625l-0.25 1.4375q-0.5 -0.09375 -0.953125 -0.09375q-0.75 0 -1.0625 0.328125q-0.3125 0.3125 -0.3125 1.1875l0 0.890625l1.890625 0l0 1.265625l-1.890625 0l0 8.40625l-1.625 0zm4.7770386 0l0 -9.671875l1.46875 0l0 1.46875q0.5625 -1.03125 1.03125 -1.359375q0.484375 -0.328125 1.0625 -0.328125q0.828125 0 1.6875 0.53125l-0.5625 1.515625q-0.609375 -0.359375 -1.203125 -0.359375q-0.546875 0 -0.96875 0.328125q-0.421875 0.328125 -0.609375 0.890625q-0.28125 0.875 -0.28125 1.921875l0 5.0625l-1.625 0zm5.6189575 -4.84375q0 -2.6875 1.484375 -3.96875q1.25 -1.078125 3.046875 -1.078125q2.0 0 3.265625 1.3125q1.265625 1.296875 1.265625 3.609375q0 1.859375 -0.5625 2.9375q-0.5625 1.0625 -1.640625 1.65625q-1.0625 0.59375 -2.328125 0.59375q-2.03125 0 -3.28125 -1.296875q-1.25 -1.3125 -1.25 -3.765625zm1.6875 0q0 1.859375 0.796875 2.796875q0.8125 0.921875 2.046875 0.921875q1.21875 0 2.03125 -0.921875q0.8125 -0.9375 0.8125 -2.84375q0 -1.796875 -0.8125 -2.71875q-0.8125 -0.921875 -2.03125 -0.921875q-1.234375 0 -2.046875 0.921875q-0.796875 0.90625 -0.796875 2.765625zm9.297546 4.84375l0 -9.671875l1.46875 0l0 1.359375q0.453125 -0.71875 1.203125 -1.140625q0.765625 -0.4375 1.71875 -0.4375q1.078125 0 1.765625 0.453125q0.6875 0.4375 0.96875 1.234375q1.15625 -1.6875 2.984375 -1.6875q1.453125 0 2.21875 0.796875q0.78125 0.796875 0.78125 2.453125l0 6.640625l-1.640625 0l0 -6.09375q0 -0.984375 -0.15625 -1.40625q-0.15625 -0.4375 -0.578125 -0.703125q-0.421875 -0.265625 -0.984375 -0.265625q-1.015625 0 -1.6875 0.6875q-0.671875 0.671875 -0.671875 2.15625l0 5.625l-1.640625 0l0 -6.28125q0 -1.09375 -0.40625 -1.640625q-0.40625 -0.546875 -1.3125 -0.546875q-0.6875 0 -1.28125 0.359375q-0.59375 0.359375 -0.859375 1.0625q-0.25 0.703125 -0.25 2.03125l0 5.015625l-1.640625 0z" fill-rule="nonzero"/><path fill="#cc0000" d="m813.68494 372.37512l0 -11.78125l-4.40625 0l0 -1.578125l10.578125 0l0 1.578125l-4.40625 0l0 11.78125l-1.765625 0zm8.020996 0l0 -13.359375l9.65625 0l0 1.578125l-7.875 0l0 4.09375l7.375 0l0 1.5625l-7.375 0l0 4.546875l8.1875 0l0 1.578125l-9.96875 0z" fill-rule="nonzero"/><path fill="#000000" fill-opacity="0.0" d="m119.58924 238.29659l15.874016 22.07875" fill-rule="evenodd"/><path stroke="#000000" stroke-width="1.0" stroke-linejoin="round" stroke-linecap="butt" d="m119.58924 238.29659l12.371483 17.207169" fill-rule="evenodd"/><path fill="#000000" stroke="#000000" stroke-width="1.0" stroke-linecap="butt" d="m130.61963 256.46796l3.9902344 2.720398l-1.3080444 -4.648819z" fill-rule="evenodd"/><path fill="#000000" fill-opacity="0.0" d="m117.82546 319.44095l19.401573 -18.519684" fill-rule="evenodd"/><path stroke="#000000" stroke-width="1.0" stroke-linejoin="round" stroke-linecap="butt" d="m117.82546 319.44095l15.0614395 -14.376831" fill-rule="evenodd"/><path fill="#000000" stroke="#000000" stroke-width="1.0" stroke-linecap="butt" d="m134.02739 306.2589l2.1421661 -4.328247l-4.4231415 1.9386597z" fill-rule="evenodd"/><path fill="#000000" fill-opacity="0.0" d="m73.6811 199.26509l89.16535 0l0 42.015747l-89.16535 0z" fill-rule="evenodd"/><path fill="#cc0000" d="m83.46235 219.59134q0 -2.359375 0.484375 -3.796875q0.484375 -1.453125 1.4375 -2.234375q0.96875 -0.78125 2.421875 -0.78125q1.078125 0 1.890625 0.4375q0.8125 0.421875 1.328125 1.25q0.53125 0.8125 0.828125 1.984375q0.3125 1.15625 0.3125 3.140625q0 2.359375 -0.484375 3.8125q-0.484375 1.4375 -1.453125 2.234375q-0.953125 0.78125 -2.421875 0.78125q-1.921875 0 -3.03125 -1.390625q-1.3125 -1.671875 -1.3125 -5.4375zm1.671875 0q0 3.296875 0.765625 4.390625q0.78125 1.078125 1.90625 1.078125q1.140625 0 1.90625 -1.09375q0.765625 -1.09375 0.765625 -4.375q0 -3.296875 -0.765625 -4.375q-0.765625 -1.078125 -1.921875 -1.078125q-1.125 0 -1.796875 0.953125q-0.859375 1.21875 -0.859375 4.5zm9.610092 6.59375l0 -1.875l1.875 0l0 1.875l-1.875 0zm4.277054 -6.59375q0 -2.359375 0.484375 -3.796875q0.484375 -1.453125 1.4375 -2.234375q0.96875 -0.78125 2.421875 -0.78125q1.078125 0 1.890625 0.4375q0.8125 0.421875 1.328125 1.25q0.53125 0.8125 0.828125 1.984375q0.3125 1.15625 0.3125 3.140625q0 2.359375 -0.484375 3.8125q-0.484375 1.4375 -1.453125 2.234375q-0.953125 0.78125 -2.421875 0.78125q-1.921875 0 -3.03125 -1.390625q-1.3125 -1.671875 -1.3125 -5.4375zm1.671875 0q0 3.296875 0.765625 4.390625q0.78125 1.078125 1.90625 1.078125q1.140625 0 1.90625 -1.09375q0.765625 -1.09375 0.765625 -4.375q0 -3.296875 -0.765625 -4.375q-0.765625 -1.078125 -1.921875 -1.078125q-1.125 0 -1.796875 0.953125q-0.859375 1.21875 -0.859375 4.5zm8.703842 0q0 -2.359375 0.484375 -3.796875q0.484375 -1.453125 1.4375 -2.234375q0.96875 -0.78125 2.421875 -0.78125q1.078125 0 1.890625 0.4375q0.8125 0.421875 1.328125 1.25q0.53125 0.8125 0.828125 1.984375q0.3125 1.15625 0.3125 3.140625q0 2.359375 -0.484375 3.8125q-0.484375 1.4375 -1.453125 2.234375q-0.953125 0.78125 -2.421875 0.78125q-1.921875 0 -3.03125 -1.390625q-1.3125 -1.671875 -1.3125 -5.4375zm1.671875 0q0 3.296875 0.765625 4.390625q0.78125 1.078125 1.90625 1.078125q1.140625 0 1.90625 -1.09375q0.765625 -1.09375 0.765625 -4.375q0 -3.296875 -0.765625 -4.375q-0.765625 -1.078125 -1.921875 -1.078125q-1.125 0 -1.796875 0.953125q-0.859375 1.21875 -0.859375 4.5zm8.703842 0q0 -2.359375 0.484375 -3.796875q0.484375 -1.453125 1.4375 -2.234375q0.96875 -0.78125 2.421875 -0.78125q1.078125 0 1.890625 0.4375q0.8125 0.421875 1.328125 1.25q0.53125 0.8125 0.8281326 1.984375q0.3125 1.15625 0.3125 3.140625q0 2.359375 -0.48438263 3.8125q-0.484375 1.4375 -1.453125 2.234375q-0.953125 0.78125 -2.421875 0.78125q-1.921875 0 -3.03125 -1.390625q-1.3125 -1.671875 -1.3125 -5.4375zm1.671875 0q0 3.296875 0.765625 4.390625q0.78125 1.078125 1.90625 1.078125q1.140625 0 1.90625 -1.09375q0.765625 -1.09375 0.765625 -4.375q0 -3.296875 -0.765625 -4.375q-0.765625 -1.078125 -1.921875 -1.078125q-1.125 0 -1.796875 0.953125q-0.859375 1.21875 -0.859375 4.5zm8.70385 3.09375l1.71875 -0.140625q0.1875 1.25 0.875 1.890625q0.703125 0.625 1.6875 0.625q1.1875 0 2.0 -0.890625q0.828125 -0.890625 0.828125 -2.359375q0 -1.40625 -0.796875 -2.21875q-0.78125 -0.8125 -2.0625 -0.8125q-0.78125 0 -1.421875 0.359375q-0.640625 0.359375 -1.0 0.9375l-1.546875 -0.203125l1.296875 -6.859375l6.640625 0l0 1.5625l-5.328125 0l-0.71875 3.59375q1.203125 -0.84375 2.515625 -0.84375q1.75 0 2.953125 1.21875q1.203125 1.203125 1.203125 3.109375q0 1.8125 -1.046875 3.140625q-1.296875 1.625 -3.515625 1.625q-1.8125 0 -2.96875 -1.015625q-1.15625 -1.03125 -1.3125 -2.71875z" fill-rule="nonzero"/><path fill="#000000" fill-opacity="0.0" d="m73.6811 320.01443l89.16535 0l0 42.015747l-89.16535 0z" fill-rule="evenodd"/><path fill="#cc0000" d="m83.46235 340.3407q0 -2.359375 0.484375 -3.796875q0.484375 -1.453125 1.4375 -2.234375q0.96875 -0.78125 2.421875 -0.78125q1.078125 0 1.890625 0.4375q0.8125 0.421875 1.328125 1.25q0.53125 0.8125 0.828125 1.984375q0.3125 1.15625 0.3125 3.140625q0 2.359375 -0.484375 3.8125q-0.484375 1.4375 -1.453125 2.234375q-0.953125 0.78125 -2.421875 0.78125q-1.921875 0 -3.03125 -1.390625q-1.3125 -1.671875 -1.3125 -5.4375zm1.671875 0q0 3.296875 0.765625 4.390625q0.78125 1.078125 1.90625 1.078125q1.140625 0 1.90625 -1.09375q0.765625 -1.09375 0.765625 -4.375q0 -3.296875 -0.765625 -4.375q-0.765625 -1.078125 -1.921875 -1.078125q-1.125 0 -1.796875 0.953125q-0.859375 1.21875 -0.859375 4.5zm9.610092 6.59375l0 -1.875l1.875 0l0 1.875l-1.875 0zm4.277054 -6.59375q0 -2.359375 0.484375 -3.796875q0.484375 -1.453125 1.4375 -2.234375q0.96875 -0.78125 2.421875 -0.78125q1.078125 0 1.890625 0.4375q0.8125 0.421875 1.328125 1.25q0.53125 0.8125 0.828125 1.984375q0.3125 1.15625 0.3125 3.140625q0 2.359375 -0.484375 3.8125q-0.484375 1.4375 -1.453125 2.234375q-0.953125 0.78125 -2.421875 0.78125q-1.921875 0 -3.03125 -1.390625q-1.3125 -1.671875 -1.3125 -5.4375zm1.671875 0q0 3.296875 0.765625 4.390625q0.78125 1.078125 1.90625 1.078125q1.140625 0 1.90625 -1.09375q0.765625 -1.09375 0.765625 -4.375q0 -3.296875 -0.765625 -4.375q-0.765625 -1.078125 -1.921875 -1.078125q-1.125 0 -1.796875 0.953125q-0.859375 1.21875 -0.859375 4.5zm8.703842 0q0 -2.359375 0.484375 -3.796875q0.484375 -1.453125 1.4375 -2.234375q0.96875 -0.78125 2.421875 -0.78125q1.078125 0 1.890625 0.4375q0.8125 0.421875 1.328125 1.25q0.53125 0.8125 0.828125 1.984375q0.3125 1.15625 0.3125 3.140625q0 2.359375 -0.484375 3.8125q-0.484375 1.4375 -1.453125 2.234375q-0.953125 0.78125 -2.421875 0.78125q-1.921875 0 -3.03125 -1.390625q-1.3125 -1.671875 -1.3125 -5.4375zm1.671875 0q0 3.296875 0.765625 4.390625q0.78125 1.078125 1.90625 1.078125q1.140625 0 1.90625 -1.09375q0.765625 -1.09375 0.765625 -4.375q0 -3.296875 -0.765625 -4.375q-0.765625 -1.078125 -1.921875 -1.078125q-1.125 0 -1.796875 0.953125q-0.859375 1.21875 -0.859375 4.5zm8.703842 0q0 -2.359375 0.484375 -3.796875q0.484375 -1.453125 1.4375 -2.234375q0.96875 -0.78125 2.421875 -0.78125q1.078125 0 1.890625 0.4375q0.8125 0.421875 1.328125 1.25q0.53125 0.8125 0.8281326 1.984375q0.3125 1.15625 0.3125 3.140625q0 2.359375 -0.48438263 3.8125q-0.484375 1.4375 -1.453125 2.234375q-0.953125 0.78125 -2.421875 0.78125q-1.921875 0 -3.03125 -1.390625q-1.3125 -1.671875 -1.3125 -5.4375zm1.671875 0q0 3.296875 0.765625 4.390625q0.78125 1.078125 1.90625 1.078125q1.140625 0 1.90625 -1.09375q0.765625 -1.09375 0.765625 -4.375q0 -3.296875 -0.765625 -4.375q-0.765625 -1.078125 -1.921875 -1.078125q-1.125 0 -1.796875 0.953125q-0.859375 1.21875 -0.859375 4.5zm8.70385 3.09375l1.71875 -0.140625q0.1875 1.25 0.875 1.890625q0.703125 0.625 1.6875 0.625q1.1875 0 2.0 -0.890625q0.828125 -0.890625 0.828125 -2.359375q0 -1.40625 -0.796875 -2.21875q-0.78125 -0.8125 -2.0625 -0.8125q-0.78125 0 -1.421875 0.359375q-0.640625 0.359375 -1.0 0.9375l-1.546875 -0.203125l1.296875 -6.859375l6.640625 0l0 1.5625l-5.328125 0l-0.71875 3.59375q1.203125 -0.84375 2.515625 -0.84375q1.75 0 2.953125 1.21875q1.203125 1.203125 1.203125 3.109375q0 1.8125 -1.046875 3.140625q-1.296875 1.625 -3.515625 1.625q-1.8125 0 -2.96875 -1.015625q-1.15625 -1.03125 -1.3125 -2.71875z" fill-rule="nonzero"/></g></svg>
