<svg version="1.1" viewBox="0.0 0.0 625.6561679790026 525.2230971128608" fill="none" stroke="none" stroke-linecap="square" stroke-miterlimit="10" xmlns:xlink="http://www.w3.org/1999/xlink" xmlns="http://www.w3.org/2000/svg"><clipPath id="p.0"><path d="m0 0l625.6562 0l0 525.2231l-625.6562 0l0 -525.2231z" clip-rule="nonzero"/></clipPath><g clip-path="url(#p.0)"><path fill="#000000" fill-opacity="0.0" d="m0 0l625.6562 0l0 525.2231l-625.6562 0z" fill-rule="evenodd"/><path fill="#000000" fill-opacity="0.0" d="m529.1903 86.132545l0 225.7323" fill-rule="evenodd"/><path stroke="#000000" stroke-width="1.763779527559055" stroke-linejoin="round" stroke-linecap="butt" d="m529.1903 86.132545l0 225.7323" fill-rule="evenodd"/><path fill="#000000" fill-opacity="0.0" d="m530.75104 87.6886l-457.7008 283.3701" fill-rule="evenodd"/><path stroke="#000000" stroke-width="1.763779527559055" stroke-linejoin="round" stroke-linecap="butt" d="m530.75104 87.6886l-457.7008 283.3701" fill-rule="evenodd"/><path fill="#000000" fill-opacity="0.0" d="m532.30707 311.8811l-456.15747 158.83466" fill-rule="evenodd"/><path stroke="#000000" stroke-width="1.763779527559055" stroke-linejoin="round" stroke-linecap="butt" d="m532.30707 311.8811l-456.15747 158.83466" fill-rule="evenodd"/><path fill="#000000" fill-opacity="0.0" d="m76.14084 470.6822l-1.5433044 -101.19684" fill-rule="evenodd"/><path stroke="#000000" stroke-width="1.763779527559055" stroke-linejoin="round" stroke-linecap="butt" d="m76.14084 470.6822l-1.5433044 -101.19684" fill-rule="evenodd"/><path fill="#000000" fill-opacity="0.0" d="m237.71292 216.87929l72.25195 -43.716537l25.13388 41.448822l-72.25198 43.716522z" fill-rule="evenodd"/><path fill="#38761d" d="m269.6727 234.99016l-1.804718 1.0919647l-6.967407 -11.490082q-0.26901245 1.0028381 -0.95770264 2.2778778q-0.68341064 1.2535858 -1.3392944 2.070465l-1.0532227 -1.7368774q1.094635 -1.6302032 1.6018372 -3.325058q0.52059937 -1.7029419 0.41326904 -2.9346466l1.1630554 -0.70370483l8.944183 14.750061zm10.417358 -6.3030853l-2.1307373 -3.5138245l-6.3767395 3.8582916l-1.0046082 -1.6567078l0.9211426 -13.578506l1.4838867 -0.89782715l5.7764587 9.526077l1.9785156 -1.1971283l1.0046082 1.656723l-1.9785156 1.197113l2.1307068 3.5138245l-1.804718 1.0919647zm-3.1353455 -5.170532l-4.018402 -6.626831l-0.59368896 9.417419l4.612091 -2.7905884zm6.433502 -2.0846405l1.801117 -1.3089142q1.0349731 1.2548065 2.2263794 1.5018616q1.1966248 0.2256012 2.27948 -0.4295807q1.3100891 -0.79267883 1.6143799 -2.3099365q0.30950928 -1.5387115 -0.6788635 -3.1687012q-0.93170166 -1.5364685 -2.3434448 -1.9058685q-1.4117737 -0.36938477 -2.8154602 0.47991943q-0.868927 0.52575684 -1.3344116 1.3552704q-0.46020508 0.80807495 -0.4723816 1.6920319l-1.8355103 0.8001404l-3.1603699 -8.406113l7.3125305 -4.4244995l1.045105 1.7235107l-5.868744 3.5509186l1.6093445 4.431961q0.76446533 -1.7226562 2.2216187 -2.6043243q1.9250488 -1.1647644 4.0586853 -0.6294861q2.1255493 0.5219269 3.3974915 2.6195374q1.2071533 1.9907227 0.92715454 4.1507263q-0.3314209 2.6477203 -2.777832 4.127945q-2.0052795 1.2132874 -3.9558105 0.8594208q-1.950531 -0.35385132 -3.2504578 -2.1058197z" fill-rule="nonzero"/><path fill="#000000" fill-opacity="0.0" d="m296.2041 388.07092l83.811035 -28.818909l15.716522 45.858276l-83.811035 28.818909z" fill-rule="evenodd"/><path fill="#38761d" d="m323.55444 412.5476l-1.994751 0.68588257l-4.356537 -12.71167q-0.4762268 0.9237976 -1.4201965 2.0249634q-0.93429565 1.0812988 -1.7486572 1.7413635l-0.6585388 -1.9215393q1.4159546 -1.3626099 2.2721252 -2.9127502q0.8709717 -1.5552063 1.0284424 -2.7825012l1.2855225 -0.4420166l5.5925903 16.318268zm11.514099 -3.959198l-1.3323059 -3.8874207l-7.0480957 2.423523l-0.6281433 -1.8328247l3.7908325 -13.084351l1.6401062 -0.56396484l3.6118774 10.538879l2.1868286 -0.7519531l0.6281738 1.8328552l-2.1868286 0.7519531l1.3322754 3.8873901l-1.9947205 0.6859131zm-1.9604492 -5.720276l-2.5126343 -7.3313904l-2.5850525 9.084259l5.097687 -1.7528687zm6.72583 -0.6769409l2.037384 -0.8988342q0.7434082 1.446228 1.854126 1.940033q1.1204224 0.47390747 2.3172607 0.06237793q1.4480286 -0.4979248 2.0682373 -1.9173279q0.6298828 -1.4393005 0.011871338 -3.2425842q-0.58258057 -1.6998291 -1.8824158 -2.3598938q-1.2998352 -0.6600952 -2.8512878 -0.12661743q-0.9604492 0.33026123 -1.5915833 1.0429688q-0.62145996 0.6928406 -0.8215637 1.554779l-1.9626465 0.39395142l-1.295929 -8.889832l8.082428 -2.7791748l0.6534729 1.9067383l-6.486603 2.2304688l0.62768555 4.6749573q1.1132812 -1.5228882 2.7238464 -2.0766907q2.127716 -0.7316284 4.097107 0.24346924q1.964325 0.96032715 2.7596436 3.2809448q0.75479126 2.2023926 0.021453857 4.2555237q-0.88742065 2.519226 -3.5914001 3.4490051q-2.2164001 0.7621155 -4.045624 0.0032043457q-1.8292236 -0.75894165 -2.7254639 -2.747467z" fill-rule="nonzero"/><path fill="#000000" fill-opacity="0.0" d="m525.20306 181.39217l81.00787 -0.09449768l0 48.472443l-81.00787 0.09449768z" fill-rule="evenodd"/><path fill="#38761d" d="m543.14056 213.41127l-2.109375 0.002456665l0 -13.437515q-0.75 0.719635 -2.0 1.4554596q-1.234375 0.7201996 -2.21875 1.080719l0 -2.03125q1.78125 -0.8302002 3.09375 -2.0192413q1.328125 -1.1890411 1.875 -2.299057l1.359375 -0.0015869141l0 17.250015zm5.7226562 -3.9754333l2.03125 -0.18986511q0.25 1.4215851 0.96875 2.0769958q0.734375 0.6397705 1.875 0.63842773q0.96875 -0.0011291504 1.703125 -0.43948364q0.734375 -0.4539795 1.203125 -1.2045288q0.46875 -0.7505493 0.78125 -2.0165405q0.328125 -1.2660065 0.328125 -2.5785065q0 -0.140625 -0.015625 -0.42185974q-0.640625 1.0163727 -1.734375 1.6426544q-1.09375 0.62628174 -2.375 0.6277771q-2.125 0.0024719238 -3.609375 -1.5426788q-1.46875 -1.5451508 -1.46875 -4.076416q0 -2.609375 1.53125 -4.2049103q1.546875 -1.5955505 3.875 -1.5982666q1.671875 -0.001953125 3.0625 0.90267944q1.390625 0.88900757 2.109375 2.5600433q0.71875 1.6710358 0.71875 4.842911q0 3.28125 -0.71875 5.235214q-0.71875 1.9539642 -2.125 2.9868622q-1.40625 1.0172577 -3.3125 1.0194855q-2.015625 0.0023498535 -3.296875 -1.1211548q-1.265625 -1.1235199 -1.53125 -3.1388397zm8.640625 -7.603836q0 -1.8125 -0.96875 -2.8738708q-0.96875 -1.0613708 -2.328125 -1.0597839q-1.40625 0.0016326904 -2.453125 1.1591187q-1.03125 1.1418152 -1.03125 2.9699402q0 1.6406403 0.984375 2.6707306q0.984375 1.0144806 2.4375 1.0127869q1.46875 -0.0017089844 2.40625 -1.0184326q0.953125 -1.0323639 0.953125 -2.860489zm4.4101562 7.026108l2.109375 -0.28370667q0.359375 1.780838 1.234375 2.5766907q0.875 0.79585266 2.125 0.7943878q1.484375 -0.0017242432 2.5 -1.0341644q1.03125 -1.0324554 1.03125 -2.5637054q0 -1.453125 -0.953125 -2.389511q-0.9375 -0.95202637 -2.40625 -0.9503174q-0.59375 6.866455E-4 -1.484375 0.23609924l0.234375 -1.8440247q0.203125 0.015396118 0.34375 0.0152282715q1.34375 -0.0015716553 2.421875 -0.7059479q1.078125 -0.7043762 1.078125 -2.1575165q0 -1.171875 -0.796875 -1.9209442q-0.78125 -0.7647095 -2.015625 -0.76327515q-1.234375 0.001449585 -2.0625 0.7836609q-0.8125 0.76657104 -1.046875 2.3137207l-2.109375 -0.37254333q0.390625 -2.1254578 1.75 -3.2832947q1.375 -1.1734772 3.421875 -1.1758575q1.40625 -0.0016479492 2.578125 0.606369q1.1875 0.59236145 1.812439 1.638504q0.640625 1.0461273 0.640625 2.2180023q0 1.1093903 -0.609375 2.0319672q-0.59368896 0.9069519 -1.765564 1.4395599q1.531189 0.35758972 2.374939 1.4659882q0.84375 1.1083832 0.84375 2.7646332q0 2.25 -1.640625 3.8300476q-1.640564 1.5644073 -4.156189 1.5673523q-2.265625 0.0026397705 -3.765625 -1.3393707q-1.484375 -1.3576355 -1.6875 -3.4980316z" fill-rule="nonzero"/><path fill="#000000" fill-opacity="0.0" d="m19.444643 400.8907l73.6693 -0.09451294l0 48.472443l-73.6693 0.09448242z" fill-rule="evenodd"/><path fill="#38761d" d="m37.382126 432.90768l-2.1093712 0.0027160645l0 -13.4375q-0.75 0.71969604 -2.0 1.4556885q-1.2343712 0.7203369 -2.2187462 1.0809631l0 -2.03125q1.7812462 -0.8304138 3.0937462 -2.0195923q1.328125 -1.189209 1.875 -2.299286l1.3593712 -0.001739502l0 17.25zm5.7226524 -3.9760742l2.03125 -0.19012451q0.25 1.4215698 0.96875 2.0769043q0.7343712 0.63967896 1.8749962 0.6382141q0.96875 -0.0012512207 1.703125 -0.43969727q0.734375 -0.45407104 1.203125 -1.2046509q0.4687462 -0.75061035 0.7812462 -2.016632q0.328125 -1.2660522 0.328125 -2.5785522q0 -0.140625 -0.015625 -0.42184448q-0.640625 1.0164185 -1.7343712 1.6428223q-1.09375 0.6264038 -2.375 0.62805176q-2.1249962 0.002746582 -3.6093712 -1.5422363q-1.46875 -1.5449829 -1.46875 -4.076233q0 -2.6094055 1.53125 -4.2051086q1.546875 -1.5957336 3.8749962 -1.5987244q1.671875 -0.0021362305 3.0624962 0.90231323q1.390625 0.888855 2.109375 2.5598145q0.71875 1.6709595 0.71875 4.8428345q0 3.28125 -0.71875 5.2352905q-0.71875 1.9540405 -2.125 2.9871216q-1.4062462 1.0174255 -3.3124962 1.019867q-2.0156212 0.0025939941 -3.2968712 -1.1207886q-1.265625 -1.123352 -1.53125 -3.1386414zm8.640617 -7.6048584q0 -1.8125 -0.9687462 -2.8737488q-0.96875 -1.0612488 -2.328125 -1.0595093q-1.40625 0.0018005371 -2.4531212 1.1593933q-1.03125 1.1419373 -1.03125 2.9700623q0 1.640625 0.984375 2.6706238q0.9843712 1.0143738 2.4374962 1.0125122q1.46875 -0.0018920898 2.40625 -1.0187378q0.9531212 -1.0324707 0.9531212 -2.8605957zm4.4101524 7.0256042l2.109375 -0.28396606q0.359375 1.7807922 1.234375 2.5765686q0.8749962 0.79574585 2.1249962 0.7941284q1.484375 -0.0018920898 2.4999962 -1.0344543q1.03125 -1.0325623 1.03125 -2.5638123q0 -1.453125 -0.953125 -2.3894043q-0.9374962 -0.9519348 -2.4062462 -0.9500427q-0.59375 7.6293945E-4 -1.484375 0.23626709l0.234375 -1.8440552q0.203125 0.015380859 0.34375 0.015197754q1.34375 -0.0017089844 2.421875 -0.7062378q1.0781212 -0.7044983 1.0781212 -2.1576233q0 -1.171875 -0.7968712 -1.9208679q-0.78125 -0.7646179 -2.015625 -0.763031q-1.234375 0.0015869141 -2.0624962 0.783905q-0.8125 0.7666626 -1.046875 2.3138428l-2.109375 -0.37231445q0.390625 -2.1254883 1.75 -3.2834778q1.375 -1.173645 3.4218712 -1.1762695q1.40625 -0.0018005371 2.5781212 0.6060791q1.1875 0.5922241 1.8125 1.6382751q0.640625 1.046051 0.640625 2.2179565q0 1.109375 -0.609375 2.032013q-0.59375 0.90701294 -1.765625 1.4397583q1.53125 0.35742188 2.375 1.4657288q0.84375 1.1082764 0.84375 2.7645264q0 2.25 -1.640625 3.8302307q-1.640625 1.5646057 -4.156246 1.5678406q-2.2656212 0.00289917 -3.7656212 -1.3389282q-1.484375 -1.3574524 -1.6875 -3.4978333z" fill-rule="nonzero"/><path fill="#000000" fill-opacity="0.0" d="m82.09055 318.1299l0 43.24411" fill-rule="evenodd"/><path stroke="#000000" stroke-width="1.0" stroke-linejoin="round" stroke-linecap="butt" d="m82.09055 318.1299l0 37.24411" fill-rule="evenodd"/><path fill="#000000" stroke="#000000" stroke-width="1.0" stroke-linecap="butt" d="m80.43882 355.37402l1.6517334 4.538086l1.6517334 -4.538086z" fill-rule="evenodd"/><path fill="#000000" fill-opacity="0.0" d="m517.9724 60.48163l1.763794 27.2126" fill-rule="evenodd"/><path stroke="#000000" stroke-width="1.0" stroke-linejoin="round" stroke-linecap="butt" d="m517.9724 60.48163l1.3757324 21.225159" fill-rule="evenodd"/><path fill="#000000" stroke="#000000" stroke-width="1.0" stroke-linecap="butt" d="m517.6999 81.81362l1.9417725 4.4217606l1.3547363 -4.6354218z" fill-rule="evenodd"/><path fill="#000000" fill-opacity="0.0" d="m60.913925 278.4239l81.00787 0l0 33.51181l-81.00787 0z" fill-rule="evenodd"/><path fill="#ff0000" d="m70.695175 298.75012q0 -2.359375 0.484375 -3.796875q0.484375 -1.453125 1.4375 -2.234375q0.96875 -0.78125 2.421875 -0.78125q1.078125 0 1.890625 0.4375q0.8125 0.421875 1.328125 1.25q0.53125 0.8125 0.828125 1.984375q0.3125 1.15625 0.3125 3.140625q0 2.359375 -0.484375 3.8125q-0.484375 1.4375 -1.453125 2.234375q-0.953125 0.78125 -2.421875 0.78125q-1.921875 0 -3.03125 -1.390625q-1.3125 -1.671875 -1.3125 -5.4375zm1.671875 0q0 3.296875 0.765625 4.390625q0.78125 1.078125 1.90625 1.078125q1.140625 0 1.90625 -1.09375q0.765625 -1.09375 0.765625 -4.375q0 -3.296875 -0.765625 -4.375q-0.765625 -1.078125 -1.921875 -1.078125q-1.125 0 -1.796875 0.953125q-0.859375 1.21875 -0.859375 4.5zm9.610092 6.59375l0 -1.875l1.875 0l0 1.875l-1.875 0zm4.277054 -6.59375q0 -2.359375 0.484375 -3.796875q0.484375 -1.453125 1.4375 -2.234375q0.96875 -0.78125 2.421875 -0.78125q1.078125 0 1.890625 0.4375q0.8125 0.421875 1.328125 1.25q0.53125 0.8125 0.828125 1.984375q0.3125 1.15625 0.3125 3.140625q0 2.359375 -0.484375 3.8125q-0.484375 1.4375 -1.453125 2.234375q-0.953125 0.78125 -2.421875 0.78125q-1.921875 0 -3.03125 -1.390625q-1.3125 -1.671875 -1.3125 -5.4375zm1.671875 0q0 3.296875 0.765625 4.390625q0.78125 1.078125 1.90625 1.078125q1.140625 0 1.90625 -1.09375q0.765625 -1.09375 0.765625 -4.375q0 -3.296875 -0.765625 -4.375q-0.765625 -1.078125 -1.921875 -1.078125q-1.125 0 -1.796875 0.953125q-0.859375 1.21875 -0.859375 4.5zm8.703842 0q0 -2.359375 0.484375 -3.796875q0.484375 -1.453125 1.4375 -2.234375q0.96875 -0.78125 2.421875 -0.78125q1.078125 0 1.890625 0.4375q0.8125 0.421875 1.328125 1.25q0.53125 0.8125 0.828125 1.984375q0.3125 1.15625 0.3125 3.140625q0 2.359375 -0.484375 3.8125q-0.484375 1.4375 -1.453125 2.234375q-0.953125 0.78125 -2.421875 0.78125q-1.921875 0 -3.03125 -1.390625q-1.3125 -1.671875 -1.3125 -5.4375zm1.671875 0q0 3.296875 0.765625 4.390625q0.78125 1.078125 1.90625 1.078125q1.140625 0 1.90625 -1.09375q0.765625 -1.09375 0.765625 -4.375q0 -3.296875 -0.765625 -4.375q-0.765625 -1.078125 -1.921875 -1.078125q-1.125 0 -1.796875 0.953125q-0.859375 1.21875 -0.859375 4.5zm14.875717 6.59375l-1.640625 0l0 -10.453125q-0.59375 0.5625 -1.5625 1.140625q-0.953125 0.5625 -1.71875 0.84375l0 -1.59375q1.375 -0.640625 2.40625 -1.5625q1.03125 -0.921875 1.453125 -1.78125l1.0625 0l0 13.40625z" fill-rule="nonzero"/><path fill="#000000" fill-opacity="0.0" d="m491.5 18.46588l54.70868 0l0 42.015747l-54.70868 0z" fill-rule="evenodd"/><path fill="#ff0000" d="m501.28125 38.792126q0 -2.359375 0.484375 -3.796875q0.484375 -1.453125 1.4375 -2.234375q0.96875 -0.7812481 2.421875 -0.7812481q1.078125 0 1.890625 0.4374981q0.8125 0.421875 1.328125 1.25q0.53125 0.8125 0.828125 1.984375q0.3125 1.15625 0.3125 3.140625q0 2.359375 -0.484375 3.8125q-0.484375 1.4375 -1.453125 2.234375q-0.953125 0.78125 -2.421875 0.78125q-1.921875 0 -3.03125 -1.390625q-1.3125 -1.671875 -1.3125 -5.4375zm1.671875 0q0 3.296875 0.765625 4.390625q0.78125 1.078125 1.90625 1.078125q1.140625 0 1.90625 -1.09375q0.765625 -1.09375 0.765625 -4.375q0 -3.296875 -0.765625 -4.375q-0.765625 -1.078125 -1.921875 -1.078125q-1.125 0 -1.796875 0.953125q-0.859375 1.21875 -0.859375 4.5zm9.610107 6.59375l0 -1.875l1.875 0l0 1.875l-1.875 0zm12.886414 -1.578125l0 1.578125l-8.828125 0q-0.015625 -0.59375 0.1875 -1.140625q0.34375 -0.90625 1.078125 -1.78125q0.75 -0.875 2.15625 -2.015625q2.171875 -1.78125 2.9375 -2.828125q0.765625 -1.046875 0.765625 -1.96875q0 -0.984375 -0.703125 -1.640625q-0.6875 -0.671875 -1.8125 -0.671875q-1.1875 0 -1.90625 0.71875q-0.703125 0.703125 -0.703125 1.953125l-1.6875 -0.171875q0.171875 -1.890625 1.296875 -2.875q1.140625 -0.9843731 3.03125 -0.9843731q1.921875 0 3.046875 1.0624981q1.125 1.0625 1.125 2.640625q0 0.796875 -0.328125 1.578125q-0.328125 0.78125 -1.09375 1.640625q-0.75 0.84375 -2.53125 2.34375q-1.46875 1.234375 -1.890625 1.6875q-0.421875 0.4375 -0.6875 0.875l6.546875 0z" fill-rule="nonzero"/></g></svg>