<svg version="1.1" viewBox="0.0 0.0 923.8241469816273 546.1758530183727" fill="none" stroke="none" stroke-linecap="square" stroke-miterlimit="10" xmlns:xlink="http://www.w3.org/1999/xlink" xmlns="http://www.w3.org/2000/svg"><clipPath id="p.0"><path d="m0 0l923.82416 0l0 546.17584l-923.82416 0l0 -546.17584z" clip-rule="nonzero"/></clipPath><g clip-path="url(#p.0)"><path fill="#000000" fill-opacity="0.0" d="m0 0l923.82416 0l0 546.17584l-923.82416 0z" fill-rule="evenodd"/><path fill="#000000" fill-opacity="0.0" d="m787.3447 265.39005c-5.337036 -5.82193 -11.645325 -25.227478 -32.022156 -34.931686c-20.376831 -9.704208 -35.900085 -24.748322 -90.23877 -23.293564c-54.338684 1.454773 -153.3132 20.86319 -235.79321 32.022156c-82.48001 11.158981 -211.05354 27.16861 -259.0868 34.9317c-48.03324 7.7630615 -24.260529 9.705627 -29.112625 11.646759" fill-rule="evenodd"/><path stroke="#000000" stroke-width="3.2992125984251968" stroke-linejoin="round" stroke-linecap="butt" d="m787.3447 265.39005c-5.337036 -5.82193 -11.645325 -25.227478 -32.022156 -34.931686c-20.376831 -9.704208 -35.900085 -24.748322 -90.23877 -23.293564c-54.338684 1.454773 -153.3132 20.86319 -235.79321 32.022156c-82.48001 11.158981 -211.05354 27.16861 -259.0868 34.9317c-48.03324 7.7630615 -24.260529 9.705627 -29.112625 11.646759" fill-rule="evenodd"/><path fill="#000000" fill-opacity="0.0" d="m786.9464 272.79175c-5.015564 6.101898 -10.249207 25.802612 -30.093262 36.611298c-19.844116 10.808655 -34.53717 26.672363 -88.971375 28.240753c-54.434143 1.5683594 -154.51227 -12.285828 -237.63373 -18.830505c-83.12146 -6.5446777 -212.6181 -15.365295 -261.09503 -20.437592c-48.476944 -5.0722656 -24.805496 -8.330109 -29.766602 -9.996124" fill-rule="evenodd"/><path stroke="#000000" stroke-width="3.2992125984251968" stroke-linejoin="round" stroke-linecap="butt" d="m786.9464 272.79175c-5.015564 6.101898 -10.249207 25.802612 -30.093262 36.611298c-19.844116 10.808655 -34.53717 26.672363 -88.971375 28.240753c-54.434143 1.5683594 -154.51227 -12.285828 -237.63373 -18.830505c-83.12146 -6.5446777 -212.6181 -15.365295 -261.09503 -20.437592c-48.476944 -5.0722656 -24.805496 -8.330109 -29.766602 -9.996124" fill-rule="evenodd"/><path fill="#000000" fill-opacity="0.0" d="m786.0079 261.5315l0 11.464569" fill-rule="evenodd"/><path stroke="#000000" stroke-width="3.0" stroke-linejoin="round" stroke-linecap="butt" d="m786.0079 261.5315l0 11.464569" fill-rule="evenodd"/><path fill="#000000" fill-opacity="0.0" d="m768.35956 147.70735l-14.141724 70.58267" fill-rule="evenodd"/><path stroke="#000000" stroke-width="1.0" stroke-linejoin="round" stroke-linecap="butt" d="m768.35956 147.70735l-12.963013 64.6996" fill-rule="evenodd"/><path fill="#000000" stroke="#000000" stroke-width="1.0" stroke-linecap="butt" d="m753.77704 212.08246l0.72802734 4.7741547l2.5110474 -4.125183z" fill-rule="evenodd"/><path fill="#000000" fill-opacity="0.0" d="m752.47766 321.5315l11.4646 61.763794" fill-rule="evenodd"/><path stroke="#000000" stroke-width="1.0" stroke-linejoin="round" stroke-linecap="butt" d="m752.47766 321.5315l10.369629 55.864532" fill-rule="evenodd"/><path fill="#000000" stroke="#000000" stroke-width="1.0" stroke-linecap="butt" d="m761.22327 377.69748l2.4522095 4.160431l0.79577637 -4.7633057z" fill-rule="evenodd"/><path fill="#000000" fill-opacity="0.0" d="m748.9554 109.767715l93.51178 0l0 48.472443l-93.51178 0z" fill-rule="evenodd"/><path fill="#cc0000" d="m758.9554 133.33897q0 -3.046875 0.625 -4.90625q0.625 -1.8593826 1.859375 -2.8593826q1.234375 -1.015625 3.109375 -1.015625q1.390625 0 2.421875 0.5625q1.046875 0.546875 1.71875 1.59375q0.6875 1.046875 1.078125 2.5625076q0.390625 1.5 0.390625 4.0625q0 3.015625 -0.625 4.875q-0.625 1.859375 -1.859375 2.875q-1.234375 1.015625 -3.125 1.015625q-2.484375 0 -3.890625 -1.78125q-1.703125 -2.15625 -1.703125 -6.984375zm2.171875 0q0 4.21875 0.984375 5.625q0.984375 1.40625 2.4375 1.40625q1.453125 0 2.4375 -1.40625q1.0 -1.40625 1.0 -5.625q0 -4.25 -1.0 -5.6406326q-0.984375 -1.390625 -2.453125 -1.390625q-1.453125 0 -2.328125 1.21875q-1.078125 1.5781326 -1.078125 5.8125076zm12.363281 8.46875l0 -2.40625l2.390625 0l0 2.40625l-2.390625 0zm5.4804688 -8.46875q0 -3.046875 0.625 -4.90625q0.625 -1.8593826 1.859375 -2.8593826q1.234375 -1.015625 3.109375 -1.015625q1.390625 0 2.421875 0.5625q1.046875 0.546875 1.71875 1.59375q0.6875 1.046875 1.078125 2.5625076q0.390625 1.5 0.390625 4.0625q0 3.015625 -0.625 4.875q-0.625 1.859375 -1.859375 2.875q-1.234375 1.015625 -3.125 1.015625q-2.484375 0 -3.890625 -1.78125q-1.703125 -2.15625 -1.703125 -6.984375zm2.171875 0q0 4.21875 0.984375 5.625q0.984375 1.40625 2.4375 1.40625q1.453125 0 2.4375 -1.40625q1.0 -1.40625 1.0 -5.625q0 -4.25 -1.0 -5.6406326q-0.984375 -1.390625 -2.453125 -1.390625q-1.453125 0 -2.328125 1.21875q-1.078125 1.5781326 -1.078125 5.8125076zm11.175781 0q0 -3.046875 0.625 -4.90625q0.625 -1.8593826 1.859375 -2.8593826q1.234375 -1.015625 3.109375 -1.015625q1.390625 0 2.421875 0.5625q1.046875 0.546875 1.71875 1.59375q0.6875 1.046875 1.078125 2.5625076q0.390625 1.5 0.390625 4.0625q0 3.015625 -0.625 4.875q-0.625 1.859375 -1.859375 2.875q-1.234375 1.015625 -3.125 1.015625q-2.484375 0 -3.890625 -1.78125q-1.703125 -2.15625 -1.703125 -6.984375zm2.171875 0q0 4.21875 0.984375 5.625q0.984375 1.40625 2.4375 1.40625q1.453125 0 2.4375 -1.40625q1.0 -1.40625 1.0 -5.625q0 -4.25 -1.0 -5.6406326q-0.984375 -1.390625 -2.453125 -1.390625q-1.453125 0 -2.328125 1.21875q-1.078125 1.5781326 -1.078125 5.8125076zm19.113281 8.46875l-2.109375 0l0 -13.4375q-0.75 0.71875 -2.0 1.453125q-1.234375 0.71875 -2.21875 1.078125l0 -2.03125q1.78125 -0.828125 3.09375 -2.0156326q1.328125 -1.1875 1.875 -2.296875l1.359375 0l0 17.250008z" fill-rule="nonzero"/><path fill="#000000" fill-opacity="0.0" d="m750.71655 382.74408l93.51178 0l0 48.472443l-93.51178 0z" fill-rule="evenodd"/><path fill="#cc0000" d="m760.71655 406.31534q0 -3.046875 0.625 -4.90625q0.625 -1.859375 1.859375 -2.859375q1.234375 -1.015625 3.109375 -1.015625q1.390625 0 2.421875 0.5625q1.046875 0.546875 1.71875 1.59375q0.6875 1.046875 1.078125 2.5625q0.390625 1.5 0.390625 4.0625q0 3.015625 -0.625 4.875q-0.625 1.859375 -1.859375 2.875q-1.234375 1.015625 -3.125 1.015625q-2.484375 0 -3.890625 -1.78125q-1.703125 -2.15625 -1.703125 -6.984375zm2.171875 0q0 4.21875 0.984375 5.625q0.984375 1.40625 2.4375 1.40625q1.453125 0 2.4375 -1.40625q1.0 -1.40625 1.0 -5.625q0 -4.25 -1.0 -5.640625q-0.984375 -1.390625 -2.453125 -1.390625q-1.453125 0 -2.328125 1.21875q-1.078125 1.578125 -1.078125 5.8125zm12.363281 8.46875l0 -2.40625l2.390625 0l0 2.40625l-2.390625 0zm5.4804688 -8.46875q0 -3.046875 0.625 -4.90625q0.625 -1.859375 1.859375 -2.859375q1.234375 -1.015625 3.109375 -1.015625q1.390625 0 2.421875 0.5625q1.046875 0.546875 1.71875 1.59375q0.6875 1.046875 1.078125 2.5625q0.390625 1.5 0.390625 4.0625q0 3.015625 -0.625 4.875q-0.625 1.859375 -1.859375 2.875q-1.234375 1.015625 -3.125 1.015625q-2.484375 0 -3.890625 -1.78125q-1.703125 -2.15625 -1.703125 -6.984375zm2.171875 0q0 4.21875 0.984375 5.625q0.984375 1.40625 2.4375 1.40625q1.453125 0 2.4375 -1.40625q1.0 -1.40625 1.0 -5.625q0 -4.25 -1.0 -5.640625q-0.984375 -1.390625 -2.453125 -1.390625q-1.453125 0 -2.328125 1.21875q-1.078125 1.578125 -1.078125 5.8125zm11.175781 0q0 -3.046875 0.625 -4.90625q0.625 -1.859375 1.859375 -2.859375q1.234375 -1.015625 3.109375 -1.015625q1.390625 0 2.421875 0.5625q1.046875 0.546875 1.71875 1.59375q0.6875 1.046875 1.078125 2.5625q0.390625 1.5 0.390625 4.0625q0 3.015625 -0.625 4.875q-0.625 1.859375 -1.859375 2.875q-1.234375 1.015625 -3.125 1.015625q-2.484375 0 -3.890625 -1.78125q-1.703125 -2.15625 -1.703125 -6.984375zm2.171875 0q0 4.21875 0.984375 5.625q0.984375 1.40625 2.4375 1.40625q1.453125 0 2.4375 -1.40625q1.0 -1.40625 1.0 -5.625q0 -4.25 -1.0 -5.640625q-0.984375 -1.390625 -2.453125 -1.390625q-1.453125 0 -2.328125 1.21875q-1.078125 1.578125 -1.078125 5.8125zm19.113281 8.46875l-2.109375 0l0 -13.4375q-0.75 0.71875 -2.0 1.453125q-1.234375 0.71875 -2.21875 1.078125l0 -2.03125q1.78125 -0.828125 3.09375 -2.015625q1.328125 -1.1875 1.875 -2.296875l1.359375 0l0 17.25z" fill-rule="nonzero"/><path fill="#000000" fill-opacity="0.0" d="m417.6013 199.77718l79.68503 -9.13385l5.5433044 48.157486l-79.68503 9.13385z" fill-rule="evenodd"/><path fill="#38761d" d="m439.08594 229.56432l-2.095642 0.24020386l-1.5366211 -13.34935q-0.66293335 0.7994385 -1.8208008 1.6713562q-1.144165 0.854599 -2.0810547 1.3237152l-0.23226929 -2.017929q1.6749573 -1.0255432 2.8431396 -2.3547058q1.1836853 -1.3309631 1.6001282 -2.4953308l1.3505554 -0.15481567l1.9725647 17.136856zm5.231598 -4.594406l1.9966125 -0.41758728q0.4109497 1.384079 1.2000732 1.9541626q0.80285645 0.5527954 1.9360657 0.42289734q0.96243286 -0.110305786 1.6419983 -0.62857056q0.6777954 -0.53378296 1.0577393 -1.3322449q0.37991333 -0.7984619 0.5456543 -2.0913696q0.18127441 -1.294693 0.031188965 -2.598587q-0.016082764 -0.13969421 -0.06378174 -0.41732788q-0.5202942 1.0819244 -1.5354614 1.8273773q-1.0151672 0.7454529 -2.288086 0.8913574q-2.1111755 0.2420044 -3.7627869 -1.1256866q-1.6360779 -1.3694763 -1.9255371 -3.8841248q-0.29840088 -2.5922546 1.0406494 -4.34993q1.3545532 -1.7594452 3.6675415 -2.0245667q1.6610107 -0.19039917 3.1462097 0.5515442q1.483429 0.7264252 2.3886719 2.305481q0.90527344 1.5790558 1.2679749 4.730118q0.37521362 3.259735 -0.11550903 5.281891q-0.49072266 2.022171 -1.7698975 3.2068024q-1.2809753 1.1690979 -3.1748047 1.3861847q-2.002533 0.22953796 -3.4040833 -0.7421875q-1.3860474 -0.9734802 -1.8804321 -2.945633zm7.7160645 -8.527924q-0.20727539 -1.8006134 -1.2912292 -2.745819q-1.0839539 -0.94522095 -2.4344788 -0.7904053q-1.3970947 0.16014099 -2.3049316 1.4280243q-0.894104 1.2505798 -0.6850586 3.0667114q0.18759155 1.6298523 1.2835083 2.5422516q1.0941162 0.8968506 2.5377808 0.731369q1.459198 -0.16725159 2.2744446 -1.2829742q0.82901 -1.1330261 0.6199646 -2.9491577zm5.185486 6.482895l2.063507 -0.51960754q0.56073 1.7286377 1.5211487 2.420639q0.9604492 0.69200134 2.202301 0.5496521q1.4747314 -0.16903687 2.3658142 -1.3091736q0.9066162 -1.141922 0.73150635 -2.6631317q-0.16616821 -1.4436035 -1.2202759 -2.2664032q-1.0404053 -0.8401184 -2.4996033 -0.67285156q-0.58987427 0.067611694 -1.4479065 0.40187073l0.022003174 -1.8583374q0.20358276 -0.0076141357 0.34329224 -0.023635864q1.335022 -0.15301514 2.325714 -0.9743042q0.99072266 -0.82128906 0.82455444 -2.2648773q-0.13400269 -1.1641998 -1.0114746 -1.8185272q-0.8637085 -0.67163086 -2.0900574 -0.5310669q-1.2263489 0.14056396 -1.9597473 1.0110016q-0.7196655 0.85313416 -0.77563477 2.4165497l-2.1385193 -0.13232422q0.14508057 -2.155548 1.3634033 -3.459015q1.2320251 -1.3207703 3.2655945 -1.5538635q1.3970947 -0.16015625 2.6310425 0.31178284q1.2476807 0.45462036 1.9883118 1.4234467q0.75616455 0.9670563 0.89016724 2.1312408q0.12686157 1.1020966 -0.3731079 2.087326q-0.4862671 0.967926 -1.5897827 1.6291351q1.5624084 0.1826477 2.5275269 1.1886597q0.9651184 1.006012 1.1545105 2.6513977q0.2572937 2.2352448 -1.1921997 3.9898376q-1.4512634 1.73909 -3.950531 2.0255585q-2.250885 0.25801086 -3.8947754 -0.9060974q-1.630188 -1.181427 -2.0767822 -3.2848816z" fill-rule="nonzero"/><path fill="#000000" fill-opacity="0.0" d="m425.65604 321.53088l79.93701 6.6141663l-3.9685059 48.314972l-79.93701 -6.614197z" fill-rule="evenodd"/><path fill="#38761d" d="m440.90958 354.94247l-2.1022034 -0.1739502l1.1000366 -13.392395q-0.80630493 0.6545105 -2.112152 1.2833252q-1.2890015 0.614563 -2.299469 0.89157104l0.16629028 -2.0244446q1.8429871 -0.6784668 3.24823 -1.7537537q1.4208069 -1.0740051 2.0566406 -2.134552l1.3547363 0.112091064l-1.4121094 17.192108zm6.0280457 -3.4835205l2.0396729 -0.019378662q0.13275146 1.4377136 0.7953491 2.1510315q0.67941284 0.69903564 1.8161621 0.7930908q0.9654541 0.0798645 1.7331238 -0.29559326q0.76898193 -0.39105225 1.2975464 -1.099884q0.52853394 -0.7088318 0.943573 -1.9444275q0.43063354 -1.234314 0.5380554 -2.5424194q0.0115356445 -0.14016724 0.018981934 -0.42175293q-0.72158813 0.9593811 -1.862793 1.492096q-1.1411743 0.53271484 -2.4180603 0.427063q-2.1177673 -0.17523193 -3.470459 -1.839325q-1.3371277 -1.6627808 -1.1299133 -4.185547q0.21362305 -2.6006165 1.8701172 -4.062744q1.6720886 -1.460846 3.992279 -1.2688599q1.6661987 0.1378479 2.9778748 1.1557312q1.3129883 1.0023193 1.8924255 2.7278442q0.57943726 1.7255249 0.3197937 4.88678q-0.26861572 3.2702332 -1.1448059 5.1575317q-0.8761902 1.8872986 -2.362091 2.7991333q-1.4845886 0.89624023 -3.3843384 0.7390442q-2.0087585 -0.16619873 -3.193573 -1.3930664q-1.16922 -1.2255859 -1.2689209 -3.2563477zm9.232849 -6.855774q0.14837646 -1.8063965 -0.73010254 -2.945221q-0.878479 -1.1388245 -2.2332153 -1.2509155q-1.4014587 -0.1159668 -2.5394287 0.95007324q-1.1211243 1.0517578 -1.270752 2.8737488q-0.13430786 1.6351318 0.76226807 2.7440796q0.8978882 1.0933838 2.3460693 1.2132263q1.4637451 0.12112427 2.4812012 -0.81381226q1.0343018 -0.94918823 1.18396 -2.7711792zm3.819519 7.371338l2.1252136 -0.10638428q0.21234131 1.8049011 1.0191345 2.6712646q0.8067932 0.8663635 2.0525208 0.9694214q1.4793396 0.122406006 2.5759277 -0.82162476q1.1121521 -0.942749 1.2374878 -2.468872q0.11895752 -1.4482422 -0.7541809 -2.4611816q-0.8562622 -1.0272522 -2.3200073 -1.148346q-0.59173584 -0.048980713 -1.4985046 0.11117554l0.38449097 -1.8182373q0.20117188 0.032318115 0.3413086 0.043914795q1.3391724 0.110809326 2.4711914 -0.5010376q1.132019 -0.61187744 1.2509766 -2.0601196q0.09591675 -1.1679382 -0.6368408 -1.9811401q-0.71591187 -0.82748413 -1.9460754 -0.92926025q-1.2301941 -0.10180664 -2.1194458 0.608551q-0.872406 0.6960449 -1.232605 2.2184143l-2.0715027 -0.547699q0.56326294 -2.0856323 2.0126648 -3.1259155q1.4662476 -1.0545654 3.506134 -0.8857727q1.4014587 0.1159668 2.5194702 0.8199158q1.1348572 0.68969727 1.6720276 1.7845764q0.5527344 1.0961914 0.45681763 2.2641296q-0.09082031 1.1056519 -0.7735901 1.9741821q-0.6659241 0.85424805 -1.8772888 1.2870789q1.4966125 0.48443604 2.2466736 1.659668q0.75006104 1.1752319 0.61447144 2.8259277q-0.1842041 2.2424316 -1.9484253 3.6799927q-1.7629395 1.4219666 -4.269989 1.2145386q-2.2579346 -0.18682861 -3.6428223 -1.6497803q-1.3680115 -1.4772034 -1.3952332 -3.6273804z" fill-rule="nonzero"/><path fill="#000000" fill-opacity="0.0" d="m146.8157 201.10988l10.425201 71.2126" fill-rule="evenodd"/><path stroke="#000000" stroke-width="1.0" stroke-linejoin="round" stroke-linecap="butt" d="m146.8157 201.10986l9.556091 65.27588" fill-rule="evenodd"/><path fill="#000000" stroke="#000000" stroke-width="1.0" stroke-linecap="butt" d="m154.73749 266.625l2.2916565 4.2509766l0.9769592 -4.729492z" fill-rule="evenodd"/><path fill="#000000" fill-opacity="0.0" d="m115.77161 171.91731l188.81891 -67.527565l16.314941 45.637794l-188.8189 67.52756z" fill-rule="evenodd"/><path fill="#cc0000" d="m146.28648 188.6262l2.342636 -0.22381592q0.26472473 2.8756866 -0.9863739 4.8995667q-1.2563629 2.0091705 -3.786911 2.9141693q-2.6040955 0.93130493 -4.6306 0.46125793q-2.017044 -0.4900055 -3.5909424 -2.200531q-1.5791779 -1.725235 -2.404953 -4.035187q-0.90467834 -2.530655 -0.6216278 -4.755951q0.29777527 -2.230545 1.730835 -3.8382568q1.4330597 -1.607727 3.5810852 -2.3759308q2.4275513 -0.86816406 4.517166 -0.22155762q2.1043243 0.6413269 3.5511475 2.6462097l-1.9250488 1.252655q-1.204956 -1.5603638 -2.5682526 -1.9854889q-1.3485718 -0.43037415 -2.9669495 0.14839172q-1.8684692 0.66822815 -2.7981873 2.01297q-0.929718 1.3447418 -0.90815735 3.0296326q0.0362854 1.6796265 0.6095886 3.2833557q0.7363739 2.059845 1.8771362 3.3942566q1.1554871 1.3291473 2.694275 1.6417236q1.5482178 0.2926178 3.0194702 -0.23355103q1.8096313 -0.6471863 2.6772919 -2.1190796q0.8771057 -1.4918671 0.5873718 -3.6948395zm3.7216644 -1.5301056q-1.1676636 -3.2663116 0.08442688 -5.4730835q1.0472717 -1.8514099 3.224701 -2.6301422q2.4128418 -0.8628998 4.5109863 0.1789093q2.0981598 1.0418091 3.0922546 3.822586q0.80999756 2.265808 0.5960846 3.802597q-0.21391296 1.536789 -1.250885 2.7207642q-1.0369568 1.18396 -2.5670624 1.7311707q-2.4716797 0.8839569 -4.5498657 -0.14840698q-2.083435 -1.0470581 -3.1406403 -4.0043945zm2.0450287 -0.731369q0.80474854 2.2510986 2.1755066 3.0220337q1.3854675 0.7656708 2.886139 0.22897339q1.4712524 -0.52615356 2.0572357 -1.9968872q0.58073425 -1.4854279 -0.2450409 -3.795395q-0.7784424 -2.177536 -2.1786346 -2.9379425q-1.3854828 -0.7656708 -2.8420105 -0.24476624q-1.5006714 0.5366821 -2.0866547 2.0074158q-0.57128906 1.4654541 0.23345947 3.716568zm14.956299 6.3168488l-5.7962494 -16.213837l1.8096313 -0.6471863l0.5470123 1.5301666q0.32650757 -1.1290131 0.96318054 -1.854538q0.6461334 -0.74549866 1.7937012 -1.155899q1.5006714 -0.5366821 2.9270172 -0.16729736q1.4210663 0.3546753 2.514511 1.5566711q1.0934296 1.2019806 1.693039 2.8792877q0.6416931 1.7949982 0.50979614 3.4683838q-0.13188171 1.6734009 -1.094223 2.8804626q-0.94763184 1.2017975 -2.3011627 1.6858673q-1.0004578 0.3577881 -1.9421997 0.22994995q-0.93229675 -0.14781189 -1.6786499 -0.6110382l2.0407867 5.7086945l-1.9861908 0.7103119zm-1.8669281 -10.931641q0.80999756 2.2658234 2.1113892 3.028366q1.2961273 0.74783325 2.605545 0.27955627q1.3241119 -0.47355652 1.8659668 -1.9284973q0.54185486 -1.4549408 -0.29969788 -3.8090363q-0.79948425 -2.2363892 -2.126114 -3.0231018q-1.3119202 -0.7919769 -2.5919037 -0.33421326q-1.2799683 0.45776367 -1.8249512 1.9967957q-0.5502472 1.5243073 0.25976562 3.7901306zm14.357285 6.4978943l-0.88868713 -1.7896423q0.7251892 -0.06021118 1.2106934 -0.2338562q0.6620636 -0.23677063 0.9804077 -0.5995331q0.31832886 -0.3627472 0.42643738 -0.8494568q0.08605957 -0.36265564 0.07722473 -1.6870422q-0.004272461 -0.19760132 0.0029754639 -0.5486603l-8.645706 -10.166763l2.133316 -0.76293945l4.8722687 5.9240265q0.9283905 1.1116638 1.8211212 2.4020386q-0.1507721 -1.4893341 -0.14283752 -2.9524689l0.07003784 -7.741333l1.9861755 -0.7103119l-0.1921997 13.526596q-0.03187561 2.1852417 -0.17138672 3.0482483q-0.1772461 1.1752014 -0.7056732 1.8786011q-0.51371765 0.6981354 -1.4700317 1.0401459q-0.5737915 0.2052002 -1.3641357 0.22235107zm16.536728 -11.008469l-3.6397552 -10.1814575l-1.7655029 0.63139343l-0.55226135 -1.5448761l1.7654877 -0.63139343l-0.44181824 -1.2359009q-0.42604065 -1.1917725 -0.42520142 -1.8392487q0.0060272217 -0.86505127 0.55862427 -1.593689q0.5620575 -0.74861145 1.8567505 -1.2116394q0.8386078 -0.2999115 1.9221344 -0.47169495l0.32641602 1.8413849q-0.66000366 0.10328674 -1.2190857 0.30322266q-0.8974457 0.32096863 -1.1379547 0.855011q-0.23106384 0.51408386 0.14764404 1.5734253l0.3839569 1.0740662l2.280426 -0.81555176l0.5522766 1.5448761l-2.280426 0.81555176l3.6397552 10.181473l-1.9714661 0.7050476zm5.778305 -2.0664978l-4.192032 -11.726349l1.7802124 -0.6366577l0.63642883 1.7802887q0.24440002 -1.4979095 0.676178 -2.1003723q0.44648743 -0.6077118 1.13797 -0.855011q1.0004425 -0.3577881 2.2764587 -0.083984375l-0.03401184 2.0864258q-0.8734436 -0.16885376 -1.6090698 0.09422302q-0.6473541 0.23150635 -1.0349884 0.8181915q-0.37817383 0.56669617 -0.35165405 1.3371277q0.055023193 1.1751099 0.50737 2.4404297l2.1933136 6.1353607l-1.9861755 0.71032715zm4.7111206 -8.289322q-1.1676636 -3.2663116 0.08442688 -5.4730835q1.0472565 -1.8514099 3.224701 -2.630127q2.4128418 -0.86291504 4.5109863 0.17889404q2.0981598 1.0418091 3.0922546 3.822586q0.80999756 2.2658234 0.5960846 3.8026123q-0.21391296 1.536789 -1.250885 2.720749q-1.0369568 1.18396 -2.5670624 1.7311707q-2.4716797 0.8839569 -4.5498657 -0.14839172q-2.083435 -1.0470734 -3.1406403 -4.00441zm2.0450287 -0.731369q0.80474854 2.251114 2.1755066 3.0220337q1.3854675 0.7656708 2.886139 0.22898865q1.4712524 -0.5261688 2.0572357 -1.9968872q0.58073425 -1.4854431 -0.2450409 -3.795395q-0.77845764 -2.1775513 -2.1786346 -2.9379578q-1.3854828 -0.7656555 -2.8420105 -0.24476624q-1.5006714 0.5366974 -2.0866547 2.0074158q-0.57128906 1.4654694 0.23345947 3.716568zm13.352081 1.829361l-4.192032 -11.726349l1.7802124 -0.6366577l0.5890808 1.6478729q0.25401306 -1.0533142 0.97683716 -1.909195q0.72280884 -0.855896 1.8998108 -1.276825q1.294693 -0.46302795 2.313202 -0.21328735q1.0332184 0.24446106 1.7334595 1.0892487q0.64660645 -2.554428 2.882904 -3.354187q1.7360535 -0.6208801 3.0247955 0.013442993q1.2887421 0.6343231 2.004074 2.6352997l2.8770905 8.04808l-1.9861908 0.7103119l-2.640396 -7.3859863q-0.42604065 -1.1917572 -0.8013916 -1.6383057q-0.38061523 -0.4612732 -1.011261 -0.6008148q-0.6159363 -0.14479065 -1.2927094 0.09724426q-1.2358398 0.44198608 -1.7651978 1.5605621q-0.5146332 1.113327 0.13230896 2.9230347l2.4352722 6.8121796l-1.9861755 0.7103119l-2.7245636 -7.6213837q-0.4733734 -1.3241882 -1.1955719 -1.8126373q-0.7221985 -0.48846436 -1.8256378 -0.09384155q-0.8386078 0.2999115 -1.4017181 0.99913025q-0.5484009 0.69395447 -0.5670166 1.6630707q-0.018600464 0.9691162 0.55470276 2.5728455l2.172287 6.0765076l-1.9861755 0.71032715zm29.064423 -10.394348l-5.1019745 -14.271713l-5.325897 1.9047089l-0.6837616 -1.9127045l12.829239 -4.58815l0.68377686 1.9127045l-5.3553314 1.9152374l5.101959 14.271713l-2.1480103 0.76820374zm9.743317 -3.4845123l-5.785736 -16.184433l11.696381 -4.1829834l0.68377686 1.9127045l-9.56308 3.4200592l1.772522 4.958313l8.94516 -3.1990662l0.67852783 1.8979797l-8.94516 3.1990814l1.9671326 5.502701l9.930908 -3.5516052l0.68377686 1.9127045l-12.064209 4.3145447z" fill-rule="nonzero"/><path fill="#000000" fill-opacity="0.0" d="m152.96588 302.9987l11.464569 61.763794" fill-rule="evenodd"/><path stroke="#000000" stroke-width="1.0" stroke-linejoin="round" stroke-linecap="butt" d="m154.0609 308.89792l10.369553 55.864563" fill-rule="evenodd"/><path fill="#000000" stroke="#000000" stroke-width="1.0" stroke-linecap="butt" d="m155.68489 308.59647l-2.4522095 -4.160431l-0.79577637 4.763336z" fill-rule="evenodd"/><path fill="#000000" fill-opacity="0.0" d="m151.20473 364.21127l191.87401 0l0 77.57483l-191.87401 0z" fill-rule="evenodd"/><path fill="#cc0000" d="m174.3141 390.22003l2.28125 0.578125q-0.71875 2.796875 -2.578125 4.28125q-1.859375 1.46875 -4.546875 1.46875q-2.765625 0 -4.515625 -1.125q-1.734375 -1.140625 -2.640625 -3.28125q-0.90625 -2.15625 -0.90625 -4.609375q0 -2.6875 1.015625 -4.6875q1.03125 -2.0 2.921875 -3.03125q1.890625 -1.03125 4.171875 -1.03125q2.578125 0 4.328125 1.3125q1.765625 1.3125 2.453125 3.6875l-2.234375 0.53125q-0.609375 -1.875 -1.75 -2.734375q-1.125 -0.859375 -2.84375 -0.859375q-1.984375 0 -3.3125 0.953125q-1.328125 0.953125 -1.875 2.546875q-0.53125 1.59375 -0.53125 3.296875q0 2.1875 0.625 3.828125q0.640625 1.640625 1.984375 2.453125q1.359375 0.796875 2.921875 0.796875q1.921875 0 3.234375 -1.09375q1.328125 -1.109375 1.796875 -3.28125zm4.0195312 -0.1875q0 -3.46875 1.921875 -5.125q1.609375 -1.390625 3.921875 -1.390625q2.5625 0 4.1875 1.6875q1.625 1.6875 1.625 4.640625q0 2.40625 -0.71875 3.78125q-0.71875 1.375 -2.09375 2.140625q-1.375 0.765625 -3.0 0.765625q-2.625 0 -4.234375 -1.671875q-1.609375 -1.6875 -1.609375 -4.828125zm2.171875 0q0 2.390625 1.03125 3.578125q1.046875 1.1875 2.640625 1.1875q1.5625 0 2.609375 -1.1875q1.046875 -1.203125 1.046875 -3.65625q0 -2.3125 -1.0625 -3.5q-1.046875 -1.1875 -2.59375 -1.1875q-1.59375 0 -2.640625 1.1875q-1.03125 1.1875 -1.03125 3.578125zm11.957031 10.984375l0 -17.21875l1.921875 0l0 1.625q0.6875 -0.953125 1.53125 -1.421875q0.859375 -0.484375 2.078125 -0.484375q1.59375 0 2.8125 0.828125q1.21875 0.8125 1.84375 2.3125q0.625 1.5 0.625 3.28125q0 1.90625 -0.6875 3.4375q-0.6875 1.53125 -2.0 2.34375q-1.296875 0.8125 -2.734375 0.8125q-1.0625 0 -1.90625 -0.4375q-0.828125 -0.453125 -1.375 -1.140625l0 6.0625l-2.109375 0zm1.921875 -10.921875q0 2.40625 0.96875 3.5625q0.96875 1.140625 2.359375 1.140625q1.40625 0 2.40625 -1.1875q1.0 -1.1875 1.0 -3.6875q0 -2.375 -0.984375 -3.5625q-0.96875 -1.1875 -2.328125 -1.1875q-1.359375 0 -2.390625 1.265625q-1.03125 1.25 -1.03125 3.65625zm11.332031 10.953125l-0.234375 -1.984375q0.703125 0.1875 1.21875 0.1875q0.703125 0 1.125 -0.234375q0.421875 -0.234375 0.6875 -0.65625q0.203125 -0.3125 0.640625 -1.5625q0.0625 -0.1875 0.1875 -0.515625l-4.71875 -12.484375l2.265625 0l2.59375 7.21875q0.5 1.359375 0.90625 2.875q0.359375 -1.453125 0.859375 -2.828125l2.671875 -7.265625l2.109375 0l-4.734375 12.671875q-0.765625 2.046875 -1.1875 2.8125q-0.5625 1.046875 -1.296875 1.53125q-0.71875 0.484375 -1.734375 0.484375q-0.609375 0 -1.359375 -0.25zm19.277344 -4.796875l0 -10.8125l-1.875 0l0 -1.640625l1.875 0l0 -1.3125q0 -1.265625 0.21875 -1.875q0.296875 -0.8125 1.0625 -1.3125q0.78125 -0.515625 2.15625 -0.515625q0.890625 0 1.96875 0.203125l-0.3125 1.84375q-0.65625 -0.125 -1.25 -0.125q-0.953125 0 -1.359375 0.421875q-0.390625 0.40625 -0.390625 1.53125l0 1.140625l2.421875 0l0 1.640625l-2.421875 0l0 10.8125l-2.09375 0zm6.1367188 0l0 -12.453125l1.890625 0l0 1.890625q0.734375 -1.328125 1.34375 -1.75q0.625 -0.421875 1.359375 -0.421875q1.0625 0 2.171875 0.6875l-0.734375 1.953125q-0.765625 -0.453125 -1.546875 -0.453125q-0.6875 0 -1.25 0.421875q-0.546875 0.40625 -0.78125 1.140625q-0.34375 1.125 -0.34375 2.46875l0 6.515625l-2.109375 0zm7.2265625 -6.21875q0 -3.46875 1.921875 -5.125q1.609375 -1.390625 3.921875 -1.390625q2.5625 0 4.1875 1.6875q1.625 1.6875 1.625 4.640625q0 2.40625 -0.71875 3.78125q-0.71875 1.375 -2.09375 2.140625q-1.375 0.765625 -3.0 0.765625q-2.625 0 -4.234375 -1.671875q-1.609375 -1.6875 -1.609375 -4.828125zm2.171875 0q0 2.390625 1.03125 3.578125q1.046875 1.1875 2.640625 1.1875q1.5625 0 2.609375 -1.1875q1.046875 -1.203125 1.046875 -3.65625q0 -2.3125 -1.0625 -3.5q-1.046875 -1.1875 -2.59375 -1.1875q-1.59375 0 -2.640625 1.1875q-1.03125 1.1875 -1.03125 3.578125zm11.957031 6.21875l0 -12.453125l1.890625 0l0 1.75q0.59375 -0.90625 1.5625 -1.46875q0.96873474 -0.5625 2.2187347 -0.5625q1.375 0 2.25 0.578125q0.890625 0.578125 1.265625 1.609375q1.46875 -2.1875 3.84375 -2.1875q1.84375 0 2.84375 1.03125q1.0 1.03125 1.0 3.15625l0 8.546875l-2.109375 0l0 -7.84375q0 -1.265625 -0.203125 -1.8125q-0.203125 -0.5625 -0.75 -0.90625q-0.53125 -0.34375 -1.25 -0.34375q-1.3125 0 -2.1875 0.875q-0.859375 0.875 -0.859375 2.796875l0 7.234375l-2.109375 0l0 -8.09375q0 -1.40625 -0.515625 -2.109375q-0.515625 -0.703125 -1.6875 -0.703125q-0.890625 0 -1.65625 0.46875q-0.74998474 0.46875 -1.0937347 1.375q-0.34375 0.90625 -0.34375 2.609375l0 6.453125l-2.109375 0zm30.867172 0l0 -15.15625l-5.65625 0l0 -2.03125l13.625 0l0 2.03125l-5.6875 0l0 15.15625l-2.28125 0zm10.347656 0l0 -17.1875l12.421875 0l0 2.03125l-10.15625 0l0 5.265625l9.5 0l0 2.015625l-9.5 0l0 5.84375l10.546875 0l0 2.03125l-12.8125 0z" fill-rule="nonzero"/></g></svg>
